<mxfile host="65bd71144e" pages="2">
    <diagram id="vTRSDPO5z-D1S5athVcX" name="全体構成">
        <mxGraphModel dx="1144" dy="1034" grid="1" gridSize="10" guides="1" tooltips="1" connect="1" arrows="1" fold="1" page="1" pageScale="1" pageWidth="1654" pageHeight="1169" math="0" shadow="0">
            <root>
                <mxCell id="0"/>
                <mxCell id="1" parent="0"/>
                <mxCell id="sOqAfi5OpbUcYw0JtwZA-65" value="" style="rounded=0;whiteSpace=wrap;html=1;fillColor=none;dashed=1;strokeWidth=0.5;" parent="1" vertex="1">
                    <mxGeometry x="315" y="670" width="340" height="140" as="geometry"/>
                </mxCell>
                <mxCell id="sOqAfi5OpbUcYw0JtwZA-66" value="" style="rounded=0;whiteSpace=wrap;html=1;fillColor=none;dashed=1;strokeWidth=0.5;" parent="1" vertex="1">
                    <mxGeometry x="315" y="300" width="340" height="340" as="geometry"/>
                </mxCell>
                <mxCell id="sOqAfi5OpbUcYw0JtwZA-64" value="" style="rounded=0;whiteSpace=wrap;html=1;fillColor=none;dashed=1;strokeWidth=0.5;" parent="1" vertex="1">
                    <mxGeometry x="675" y="140" width="532" height="670" as="geometry"/>
                </mxCell>
                <mxCell id="sOqAfi5OpbUcYw0JtwZA-1" value="" style="rounded=0;whiteSpace=wrap;html=1;" parent="1" vertex="1">
                    <mxGeometry x="815" y="930" width="120" height="120" as="geometry"/>
                </mxCell>
                <mxCell id="sOqAfi5OpbUcYw0JtwZA-2" value="" style="rounded=0;whiteSpace=wrap;html=1;fillColor=#f5f5f5;fontColor=#333333;strokeColor=#666666;" parent="1" vertex="1">
                    <mxGeometry x="805" y="930" width="20" height="40" as="geometry"/>
                </mxCell>
                <mxCell id="sOqAfi5OpbUcYw0JtwZA-3" value="" style="rounded=0;whiteSpace=wrap;html=1;fillColor=#f5f5f5;fontColor=#333333;strokeColor=#666666;" parent="1" vertex="1">
                    <mxGeometry x="805" y="1010" width="20" height="40" as="geometry"/>
                </mxCell>
                <mxCell id="sOqAfi5OpbUcYw0JtwZA-5" value="" style="rounded=0;whiteSpace=wrap;html=1;fillColor=#f5f5f5;fontColor=#333333;strokeColor=#666666;" parent="1" vertex="1">
                    <mxGeometry x="925" y="1010" width="20" height="40" as="geometry"/>
                </mxCell>
                <mxCell id="sOqAfi5OpbUcYw0JtwZA-6" value="" style="rounded=0;whiteSpace=wrap;html=1;fillColor=#f5f5f5;fontColor=#333333;strokeColor=#666666;" parent="1" vertex="1">
                    <mxGeometry x="925" y="930" width="20" height="40" as="geometry"/>
                </mxCell>
                <mxCell id="sOqAfi5OpbUcYw0JtwZA-18" value="JETSON" style="rounded=0;whiteSpace=wrap;html=1;" parent="1" vertex="1">
                    <mxGeometry x="875" y="170" width="120" height="120" as="geometry"/>
                </mxCell>
                <mxCell id="sOqAfi5OpbUcYw0JtwZA-19" value="Realsense" style="rounded=0;whiteSpace=wrap;html=1;fillColor=#dae8fc;strokeColor=#6c8ebf;" parent="1" vertex="1">
                    <mxGeometry x="1055" y="305" width="120" height="40" as="geometry"/>
                </mxCell>
                <mxCell id="sOqAfi5OpbUcYw0JtwZA-37" style="edgeStyle=orthogonalEdgeStyle;rounded=0;orthogonalLoop=1;jettySize=auto;html=1;exitX=0;exitY=0.75;exitDx=0;exitDy=0;entryX=1;entryY=0.5;entryDx=0;entryDy=0;startArrow=classic;startFill=1;" parent="1" source="sOqAfi5OpbUcYw0JtwZA-20" target="sOqAfi5OpbUcYw0JtwZA-32" edge="1">
                    <mxGeometry relative="1" as="geometry">
                        <Array as="points">
                            <mxPoint x="605" y="545"/>
                            <mxPoint x="605" y="580"/>
                        </Array>
                    </mxGeometry>
                </mxCell>
                <mxCell id="sOqAfi5OpbUcYw0JtwZA-38" style="edgeStyle=orthogonalEdgeStyle;rounded=0;orthogonalLoop=1;jettySize=auto;html=1;exitX=0;exitY=0.25;exitDx=0;exitDy=0;entryX=1;entryY=0.5;entryDx=0;entryDy=0;startArrow=classic;startFill=1;" parent="1" source="sOqAfi5OpbUcYw0JtwZA-20" target="sOqAfi5OpbUcYw0JtwZA-33" edge="1">
                    <mxGeometry relative="1" as="geometry"/>
                </mxCell>
                <mxCell id="sOqAfi5OpbUcYw0JtwZA-41" style="edgeStyle=orthogonalEdgeStyle;rounded=0;orthogonalLoop=1;jettySize=auto;html=1;exitX=0.25;exitY=1;exitDx=0;exitDy=0;startArrow=classic;startFill=1;entryX=1;entryY=0.5;entryDx=0;entryDy=0;" parent="1" source="sOqAfi5OpbUcYw0JtwZA-20" target="sOqAfi5OpbUcYw0JtwZA-21" edge="1">
                    <mxGeometry relative="1" as="geometry">
                        <mxPoint x="585" y="670" as="targetPoint"/>
                        <Array as="points">
                            <mxPoint x="750" y="620"/>
                            <mxPoint x="665" y="620"/>
                            <mxPoint x="665" y="720"/>
                        </Array>
                    </mxGeometry>
                </mxCell>
                <mxCell id="sOqAfi5OpbUcYw0JtwZA-44" style="edgeStyle=orthogonalEdgeStyle;rounded=0;orthogonalLoop=1;jettySize=auto;html=1;exitX=0.75;exitY=1;exitDx=0;exitDy=0;entryX=0.5;entryY=0;entryDx=0;entryDy=0;startArrow=classic;startFill=1;endArrow=none;endFill=0;" parent="1" source="sOqAfi5OpbUcYw0JtwZA-20" target="sOqAfi5OpbUcYw0JtwZA-28" edge="1">
                    <mxGeometry relative="1" as="geometry"/>
                </mxCell>
                <mxCell id="sOqAfi5OpbUcYw0JtwZA-20" value="RobotController&lt;br&gt;(Teensy4.1)" style="rounded=0;whiteSpace=wrap;html=1;fillColor=#fad9d5;strokeColor=#ae4132;" parent="1" vertex="1">
                    <mxGeometry x="715" y="470" width="140" height="100" as="geometry"/>
                </mxCell>
                <mxCell id="sOqAfi5OpbUcYw0JtwZA-21" value="" style="rounded=0;whiteSpace=wrap;html=1;fillColor=#ffe6cc;strokeColor=#d79b00;" parent="1" vertex="1">
                    <mxGeometry x="395" y="690" width="120" height="60" as="geometry"/>
                </mxCell>
                <mxCell id="sOqAfi5OpbUcYw0JtwZA-23" value="" style="rounded=0;whiteSpace=wrap;html=1;fillColor=#ffe6cc;strokeColor=#d79b00;" parent="1" vertex="1">
                    <mxGeometry x="385" y="700" width="120" height="60" as="geometry"/>
                </mxCell>
                <mxCell id="sOqAfi5OpbUcYw0JtwZA-24" value="" style="rounded=0;whiteSpace=wrap;html=1;fillColor=#ffe6cc;strokeColor=#d79b00;" parent="1" vertex="1">
                    <mxGeometry x="375" y="710" width="120" height="60" as="geometry"/>
                </mxCell>
                <mxCell id="sOqAfi5OpbUcYw0JtwZA-22" value="C610&lt;br&gt;(Motor Driver &lt;br&gt;for Vehicle)" style="rounded=0;whiteSpace=wrap;html=1;fillColor=#ffe6cc;strokeColor=#d79b00;" parent="1" vertex="1">
                    <mxGeometry x="365" y="720" width="120" height="60" as="geometry"/>
                </mxCell>
                <mxCell id="sOqAfi5OpbUcYw0JtwZA-47" style="edgeStyle=orthogonalEdgeStyle;rounded=0;orthogonalLoop=1;jettySize=auto;html=1;exitX=0.5;exitY=0;exitDx=0;exitDy=0;entryX=1;entryY=0.75;entryDx=0;entryDy=0;startArrow=none;startFill=0;endArrow=classic;endFill=1;" parent="1" source="sOqAfi5OpbUcYw0JtwZA-27" target="sOqAfi5OpbUcYw0JtwZA-20" edge="1">
                    <mxGeometry relative="1" as="geometry"/>
                </mxCell>
                <mxCell id="sOqAfi5OpbUcYw0JtwZA-27" value="IMU&lt;br&gt;(Vehicle odometry)" style="rounded=0;whiteSpace=wrap;html=1;fillColor=#FFFFCC;strokeColor=#CCCC00;" parent="1" vertex="1">
                    <mxGeometry x="1015" y="690" width="120" height="60" as="geometry"/>
                </mxCell>
                <mxCell id="sOqAfi5OpbUcYw0JtwZA-28" value="Distance Sensor&lt;br&gt;(Fall Prevention)&lt;br&gt;x8" style="rounded=0;whiteSpace=wrap;html=1;fillColor=#e3c800;strokeColor=#B09500;fontColor=#000000;" parent="1" vertex="1">
                    <mxGeometry x="835" y="690" width="120" height="60" as="geometry"/>
                </mxCell>
                <mxCell id="sOqAfi5OpbUcYw0JtwZA-32" value="ServoMotor&lt;br&gt;(self-made)" style="rounded=0;whiteSpace=wrap;html=1;fillColor=#ffe6cc;strokeColor=#d79b00;" parent="1" vertex="1">
                    <mxGeometry x="395" y="550" width="120" height="60" as="geometry"/>
                </mxCell>
                <mxCell id="sOqAfi5OpbUcYw0JtwZA-33" value="ServoMotor&lt;br&gt;(production)" style="rounded=0;whiteSpace=wrap;html=1;fillColor=#ffe6cc;strokeColor=#d79b00;" parent="1" vertex="1">
                    <mxGeometry x="375" y="330" width="120" height="60" as="geometry"/>
                </mxCell>
                <mxCell id="sOqAfi5OpbUcYw0JtwZA-34" value="ServoMotor&lt;br&gt;(self-made)" style="rounded=0;whiteSpace=wrap;html=1;fillColor=#ffe6cc;strokeColor=#d79b00;" parent="1" vertex="1">
                    <mxGeometry x="385" y="560" width="120" height="60" as="geometry"/>
                </mxCell>
                <mxCell id="sOqAfi5OpbUcYw0JtwZA-35" value="ServoMotor&lt;br&gt;(self-made)" style="rounded=0;whiteSpace=wrap;html=1;fillColor=#ffe6cc;strokeColor=#d79b00;" parent="1" vertex="1">
                    <mxGeometry x="375" y="570" width="120" height="60" as="geometry"/>
                </mxCell>
                <mxCell id="sOqAfi5OpbUcYw0JtwZA-36" value="ServoMotor&lt;br&gt;(production)" style="rounded=0;whiteSpace=wrap;html=1;fillColor=#ffe6cc;strokeColor=#d79b00;" parent="1" vertex="1">
                    <mxGeometry x="375" y="440" width="120" height="60" as="geometry"/>
                </mxCell>
                <mxCell id="sOqAfi5OpbUcYw0JtwZA-39" value="CAN2" style="text;html=1;align=center;verticalAlign=middle;resizable=0;points=[];autosize=1;strokeColor=none;fillColor=none;" parent="1" vertex="1">
                    <mxGeometry x="545" y="560" width="50" height="20" as="geometry"/>
                </mxCell>
                <mxCell id="sOqAfi5OpbUcYw0JtwZA-40" value="UART" style="text;html=1;align=center;verticalAlign=middle;resizable=0;points=[];autosize=1;strokeColor=none;fillColor=none;" parent="1" vertex="1">
                    <mxGeometry x="555" y="338" width="50" height="20" as="geometry"/>
                </mxCell>
                <mxCell id="sOqAfi5OpbUcYw0JtwZA-42" value="CAN1" style="text;html=1;align=center;verticalAlign=middle;resizable=0;points=[];autosize=1;strokeColor=none;fillColor=none;" parent="1" vertex="1">
                    <mxGeometry x="565" y="700" width="50" height="20" as="geometry"/>
                </mxCell>
                <mxCell id="sOqAfi5OpbUcYw0JtwZA-48" value="Analog" style="text;html=1;align=center;verticalAlign=middle;resizable=0;points=[];autosize=1;strokeColor=none;fillColor=none;" parent="1" vertex="1">
                    <mxGeometry x="835" y="650" width="50" height="20" as="geometry"/>
                </mxCell>
                <mxCell id="sOqAfi5OpbUcYw0JtwZA-50" value="SPI" style="text;html=1;align=center;verticalAlign=middle;resizable=0;points=[];autosize=1;strokeColor=none;fillColor=none;" parent="1" vertex="1">
                    <mxGeometry x="1085" y="550" width="30" height="20" as="geometry"/>
                </mxCell>
                <mxCell id="sOqAfi5OpbUcYw0JtwZA-54" value="" style="endArrow=classic;html=1;rounded=0;exitX=0.983;exitY=0.535;exitDx=0;exitDy=0;entryX=0.479;entryY=0.967;entryDx=0;entryDy=0;entryPerimeter=0;exitPerimeter=0;" parent="1" source="sOqAfi5OpbUcYw0JtwZA-52" target="-v5-2RkThjya1mrPIU-X-1" edge="1">
                    <mxGeometry width="50" height="50" relative="1" as="geometry">
                        <mxPoint x="835" y="420" as="sourcePoint"/>
                        <mxPoint x="885" y="370" as="targetPoint"/>
                    </mxGeometry>
                </mxCell>
                <mxCell id="sOqAfi5OpbUcYw0JtwZA-55" value="" style="endArrow=classic;html=1;rounded=0;exitX=0.008;exitY=0.934;exitDx=0;exitDy=0;exitPerimeter=0;" parent="1" source="-v5-2RkThjya1mrPIU-X-1" target="sOqAfi5OpbUcYw0JtwZA-52" edge="1">
                    <mxGeometry width="50" height="50" relative="1" as="geometry">
                        <mxPoint x="845" y="499.9999999999998" as="sourcePoint"/>
                        <mxPoint x="915" y="300" as="targetPoint"/>
                    </mxGeometry>
                </mxCell>
                <mxCell id="sOqAfi5OpbUcYw0JtwZA-52" value="micro-ros&lt;br&gt;-arduino" style="text;html=1;align=center;verticalAlign=middle;resizable=0;points=[];autosize=1;fillColor=#E6E6E6;" parent="1" vertex="1">
                    <mxGeometry x="781" y="472" width="70" height="30" as="geometry"/>
                </mxCell>
                <mxCell id="sOqAfi5OpbUcYw0JtwZA-56" value="車両推定位置(x,y,θ)&lt;br&gt;8方向床有無&lt;br&gt;アーム関節角角度" style="text;html=1;align=center;verticalAlign=middle;resizable=0;points=[];autosize=1;strokeColor=none;fillColor=none;" parent="1" vertex="1">
                    <mxGeometry x="865" y="420" width="120" height="50" as="geometry"/>
                </mxCell>
                <mxCell id="sOqAfi5OpbUcYw0JtwZA-57" value="車両進行指示(速度、距離など)&lt;br&gt;アーム関節角度指示" style="text;html=1;align=center;verticalAlign=middle;resizable=0;points=[];autosize=1;strokeColor=none;fillColor=none;" parent="1" vertex="1">
                    <mxGeometry x="675" y="310" width="180" height="30" as="geometry"/>
                </mxCell>
                <mxCell id="sOqAfi5OpbUcYw0JtwZA-58" value="" style="group" parent="1" connectable="0" vertex="1">
                    <mxGeometry x="40" y="60" width="225.03262742270533" height="250" as="geometry"/>
                </mxCell>
                <mxCell id="sOqAfi5OpbUcYw0JtwZA-7" value="" style="shape=cube;whiteSpace=wrap;html=1;boundedLbl=1;backgroundOutline=1;darkOpacity=0.05;darkOpacity2=0.1;size=30;" parent="sOqAfi5OpbUcYw0JtwZA-58" vertex="1">
                    <mxGeometry y="150" width="160" height="80" as="geometry"/>
                </mxCell>
                <mxCell id="sOqAfi5OpbUcYw0JtwZA-8" value="" style="shape=cylinder3;whiteSpace=wrap;html=1;boundedLbl=1;backgroundOutline=1;size=4.034533270474128;" parent="sOqAfi5OpbUcYw0JtwZA-58" vertex="1">
                    <mxGeometry x="70" y="20" width="20" height="150" as="geometry"/>
                </mxCell>
                <mxCell id="sOqAfi5OpbUcYw0JtwZA-9" value="" style="shape=cylinder3;whiteSpace=wrap;html=1;boundedLbl=1;backgroundOutline=1;size=4.034533270474128;rotation=75;" parent="sOqAfi5OpbUcYw0JtwZA-58" vertex="1">
                    <mxGeometry x="140" width="20" height="150" as="geometry"/>
                </mxCell>
                <mxCell id="sOqAfi5OpbUcYw0JtwZA-12" value="" style="ellipse;whiteSpace=wrap;html=1;aspect=fixed;" parent="sOqAfi5OpbUcYw0JtwZA-58" vertex="1">
                    <mxGeometry x="65" width="30" height="30" as="geometry"/>
                </mxCell>
                <mxCell id="sOqAfi5OpbUcYw0JtwZA-15" value="" style="ellipse;whiteSpace=wrap;html=1;aspect=fixed;" parent="sOqAfi5OpbUcYw0JtwZA-58" vertex="1">
                    <mxGeometry x="40" y="210" width="40" height="40" as="geometry"/>
                </mxCell>
                <mxCell id="sOqAfi5OpbUcYw0JtwZA-16" value="" style="ellipse;whiteSpace=wrap;html=1;aspect=fixed;" parent="sOqAfi5OpbUcYw0JtwZA-58" vertex="1">
                    <mxGeometry x="110" y="210" width="40" height="40" as="geometry"/>
                </mxCell>
                <mxCell id="sOqAfi5OpbUcYw0JtwZA-60" value="" style="endArrow=classic;startArrow=classic;html=1;rounded=0;entryX=0;entryY=0.5;entryDx=0;entryDy=0;" parent="1" source="sOqAfi5OpbUcYw0JtwZA-18" target="sOqAfi5OpbUcYw0JtwZA-19" edge="1">
                    <mxGeometry width="50" height="50" relative="1" as="geometry">
                        <mxPoint x="1045" y="200" as="sourcePoint"/>
                        <mxPoint x="1095" y="150" as="targetPoint"/>
                    </mxGeometry>
                </mxCell>
                <mxCell id="sOqAfi5OpbUcYw0JtwZA-61" value="Joycon?" style="rounded=0;whiteSpace=wrap;html=1;fillColor=#e1d5e7;strokeColor=#9673a6;" parent="1" vertex="1">
                    <mxGeometry x="1040" y="50" width="120" height="40" as="geometry"/>
                </mxCell>
                <mxCell id="sOqAfi5OpbUcYw0JtwZA-62" value="" style="endArrow=none;dashed=1;html=1;strokeWidth=1;rounded=0;entryX=0;entryY=0.5;entryDx=0;entryDy=0;exitX=0.75;exitY=0;exitDx=0;exitDy=0;endFill=0;startArrow=classic;startFill=1;" parent="1" source="sOqAfi5OpbUcYw0JtwZA-18" target="sOqAfi5OpbUcYw0JtwZA-61" edge="1">
                    <mxGeometry width="50" height="50" relative="1" as="geometry">
                        <mxPoint x="1215" y="290" as="sourcePoint"/>
                        <mxPoint x="1335" y="270" as="targetPoint"/>
                    </mxGeometry>
                </mxCell>
                <mxCell id="sOqAfi5OpbUcYw0JtwZA-63" value="開始/停止" style="text;html=1;align=center;verticalAlign=middle;resizable=0;points=[];autosize=1;strokeColor=none;fillColor=none;" parent="1" vertex="1">
                    <mxGeometry x="945" y="80" width="70" height="20" as="geometry"/>
                </mxCell>
                <mxCell id="sOqAfi5OpbUcYw0JtwZA-67" value="mobile battery&amp;nbsp;" style="text;html=1;align=center;verticalAlign=middle;resizable=0;points=[];autosize=1;strokeColor=none;fillColor=none;" parent="1" vertex="1">
                    <mxGeometry x="670" y="120" width="90" height="20" as="geometry"/>
                </mxCell>
                <mxCell id="sOqAfi5OpbUcYw0JtwZA-68" value="servo motor battery" style="text;html=1;align=center;verticalAlign=middle;resizable=0;points=[];autosize=1;strokeColor=none;fillColor=none;" parent="1" vertex="1">
                    <mxGeometry x="315" y="280" width="120" height="20" as="geometry"/>
                </mxCell>
                <mxCell id="sOqAfi5OpbUcYw0JtwZA-69" value="vehicle motor battery" style="text;html=1;align=center;verticalAlign=middle;resizable=0;points=[];autosize=1;strokeColor=none;fillColor=none;" parent="1" vertex="1">
                    <mxGeometry x="310" y="650" width="130" height="20" as="geometry"/>
                </mxCell>
                <mxCell id="sOqAfi5OpbUcYw0JtwZA-71" value="optional" style="text;html=1;align=center;verticalAlign=middle;resizable=0;points=[];autosize=1;strokeColor=none;fillColor=none;" parent="1" vertex="1">
                    <mxGeometry x="1085" y="750" width="60" height="20" as="geometry"/>
                </mxCell>
                <mxCell id="sOqAfi5OpbUcYw0JtwZA-72" value="" style="shape=flexArrow;endArrow=classic;html=1;rounded=0;strokeWidth=1;" parent="1" edge="1">
                    <mxGeometry width="50" height="50" relative="1" as="geometry">
                        <mxPoint x="874.17" y="920" as="sourcePoint"/>
                        <mxPoint x="874" y="880" as="targetPoint"/>
                    </mxGeometry>
                </mxCell>
                <mxCell id="sOqAfi5OpbUcYw0JtwZA-73" value="" style="shape=flexArrow;endArrow=classic;html=1;rounded=0;strokeWidth=1;" parent="1" edge="1">
                    <mxGeometry width="50" height="50" relative="1" as="geometry">
                        <mxPoint x="945" y="989.8" as="sourcePoint"/>
                        <mxPoint x="984.8299999999999" y="989.8" as="targetPoint"/>
                    </mxGeometry>
                </mxCell>
                <mxCell id="sOqAfi5OpbUcYw0JtwZA-75" value="" style="shape=flexArrow;endArrow=classic;html=1;rounded=0;strokeWidth=1;" parent="1" edge="1">
                    <mxGeometry width="50" height="50" relative="1" as="geometry">
                        <mxPoint x="874.51" y="1060" as="sourcePoint"/>
                        <mxPoint x="874.17" y="1100" as="targetPoint"/>
                    </mxGeometry>
                </mxCell>
                <mxCell id="sOqAfi5OpbUcYw0JtwZA-76" value="" style="shape=flexArrow;endArrow=classic;html=1;rounded=0;strokeWidth=1;" parent="1" edge="1">
                    <mxGeometry width="50" height="50" relative="1" as="geometry">
                        <mxPoint x="805" y="989.8" as="sourcePoint"/>
                        <mxPoint x="765.0000000000001" y="989.8" as="targetPoint"/>
                    </mxGeometry>
                </mxCell>
                <mxCell id="sOqAfi5OpbUcYw0JtwZA-77" value="" style="shape=flexArrow;endArrow=classic;html=1;rounded=0;strokeWidth=1;" parent="1" edge="1">
                    <mxGeometry width="50" height="50" relative="1" as="geometry">
                        <mxPoint x="955" y="920" as="sourcePoint"/>
                        <mxPoint x="985" y="890" as="targetPoint"/>
                    </mxGeometry>
                </mxCell>
                <mxCell id="sOqAfi5OpbUcYw0JtwZA-78" value="" style="shape=flexArrow;endArrow=classic;html=1;rounded=0;strokeWidth=1;" parent="1" edge="1">
                    <mxGeometry width="50" height="50" relative="1" as="geometry">
                        <mxPoint x="795" y="920" as="sourcePoint"/>
                        <mxPoint x="765" y="890" as="targetPoint"/>
                    </mxGeometry>
                </mxCell>
                <mxCell id="sOqAfi5OpbUcYw0JtwZA-79" value="" style="shape=flexArrow;endArrow=classic;html=1;rounded=0;strokeWidth=1;" parent="1" edge="1">
                    <mxGeometry width="50" height="50" relative="1" as="geometry">
                        <mxPoint x="795" y="1060" as="sourcePoint"/>
                        <mxPoint x="765" y="1090" as="targetPoint"/>
                    </mxGeometry>
                </mxCell>
                <mxCell id="sOqAfi5OpbUcYw0JtwZA-80" value="" style="shape=flexArrow;endArrow=classic;html=1;rounded=0;strokeWidth=1;" parent="1" edge="1">
                    <mxGeometry width="50" height="50" relative="1" as="geometry">
                        <mxPoint x="955" y="1060" as="sourcePoint"/>
                        <mxPoint x="985" y="1090" as="targetPoint"/>
                    </mxGeometry>
                </mxCell>
                <mxCell id="sOqAfi5OpbUcYw0JtwZA-81" value="" style="endArrow=none;dashed=1;html=1;dashPattern=1 3;strokeWidth=2;rounded=0;entryX=0.5;entryY=1;entryDx=0;entryDy=0;" parent="1" target="sOqAfi5OpbUcYw0JtwZA-28" edge="1">
                    <mxGeometry width="50" height="50" relative="1" as="geometry">
                        <mxPoint x="880" y="860" as="sourcePoint"/>
                        <mxPoint x="805" y="860" as="targetPoint"/>
                    </mxGeometry>
                </mxCell>
                <mxCell id="-v5-2RkThjya1mrPIU-X-1" value="Micro-ROS&lt;br&gt;agent" style="text;html=1;align=center;verticalAlign=middle;resizable=0;points=[];autosize=1;fillColor=#E6E6E6;" parent="1" vertex="1">
                    <mxGeometry x="879" y="254" width="70" height="30" as="geometry"/>
                </mxCell>
                <mxCell id="-v5-2RkThjya1mrPIU-X-2" value="Ethernet&lt;br&gt;UDP" style="text;html=1;align=center;verticalAlign=middle;resizable=0;points=[];autosize=1;fillColor=#E6E6E6;" parent="1" vertex="1">
                    <mxGeometry x="840" y="360" width="60" height="30" as="geometry"/>
                </mxCell>
                <mxCell id="3" style="edgeStyle=orthogonalEdgeStyle;rounded=0;orthogonalLoop=1;jettySize=auto;html=1;exitX=0;exitY=0.5;exitDx=0;exitDy=0;entryX=1;entryY=0.5;entryDx=0;entryDy=0;startArrow=classic;startFill=1;" edge="1" parent="1" source="sOqAfi5OpbUcYw0JtwZA-20" target="sOqAfi5OpbUcYw0JtwZA-36">
                    <mxGeometry relative="1" as="geometry">
                        <mxPoint x="725" y="505" as="sourcePoint"/>
                        <mxPoint x="505" y="360" as="targetPoint"/>
                        <Array as="points">
                            <mxPoint x="575" y="520"/>
                            <mxPoint x="575" y="470"/>
                        </Array>
                    </mxGeometry>
                </mxCell>
                <mxCell id="4" value="CAN3" style="text;html=1;align=center;verticalAlign=middle;resizable=0;points=[];autosize=1;strokeColor=none;fillColor=none;" vertex="1" parent="1">
                    <mxGeometry x="525" y="450" width="50" height="20" as="geometry"/>
                </mxCell>
            </root>
        </mxGraphModel>
    </diagram>
    <diagram id="HJWu3tRK6hNcSWAFpT0f" name="Page-2">
        <mxGraphModel dx="2640" dy="2198" grid="1" gridSize="10" guides="1" tooltips="1" connect="1" arrows="1" fold="1" page="1" pageScale="1" pageWidth="1654" pageHeight="1169" math="0" shadow="0">
            <root>
                <mxCell id="0"/>
                <mxCell id="1" parent="0"/>
                <mxCell id="a9Ev_Q0Gf8-RII7FJuGp-4" value="Arm Drive Task" style="shape=umlFrame;whiteSpace=wrap;html=1;width=120;height=30;boundedLbl=1;verticalAlign=middle;align=left;spacingLeft=5;" vertex="1" parent="1">
                    <mxGeometry x="790" y="539" width="820" height="551" as="geometry"/>
                </mxCell>
                <mxCell id="a9Ev_Q0Gf8-RII7FJuGp-3" value="Vehicle Drive Task" style="shape=umlFrame;whiteSpace=wrap;html=1;width=120;height=30;boundedLbl=1;verticalAlign=middle;align=left;spacingLeft=5;" vertex="1" parent="1">
                    <mxGeometry x="41" y="683" width="660" height="310" as="geometry"/>
                </mxCell>
                <mxCell id="t-ddy06Q9gXrEvyEBOkg-8" value="Micro-ROS" style="html=1;" parent="1" vertex="1">
                    <mxGeometry x="1087.5" y="190" width="120" height="30" as="geometry"/>
                </mxCell>
                <mxCell id="t-ddy06Q9gXrEvyEBOkg-9" value="Logger Task" style="html=1;" parent="1" vertex="1">
                    <mxGeometry x="73" y="220" width="120" height="40" as="geometry"/>
                </mxCell>
                <mxCell id="a9Ev_Q0Gf8-RII7FJuGp-1" value="Debug Task" style="html=1;" vertex="1" parent="1">
                    <mxGeometry x="73" y="120" width="120" height="40" as="geometry"/>
                </mxCell>
                <mxCell id="a9Ev_Q0Gf8-RII7FJuGp-2" value="Floor Detect Task" style="shape=umlFrame;whiteSpace=wrap;html=1;width=120;height=30;boundedLbl=1;verticalAlign=middle;align=left;spacingLeft=5;" vertex="1" parent="1">
                    <mxGeometry x="38" y="330" width="190" height="200" as="geometry"/>
                </mxCell>
                <mxCell id="a9Ev_Q0Gf8-RII7FJuGp-5" value="Robot Manager Task" style="shape=umlFrame;whiteSpace=wrap;html=1;width=130;height=30;boundedLbl=1;verticalAlign=middle;align=left;spacingLeft=5;" vertex="1" parent="1">
                    <mxGeometry x="517.5" y="170" width="850" height="240" as="geometry"/>
                </mxCell>
                <mxCell id="a9Ev_Q0Gf8-RII7FJuGp-7" value="myADC_DMA" style="swimlane;fontStyle=1;align=center;verticalAlign=top;childLayout=stackLayout;horizontal=1;startSize=26;horizontalStack=0;resizeParent=1;resizeParentMax=0;resizeLast=0;collapsible=1;marginBottom=0;" vertex="1" collapsed="1" parent="1">
                    <mxGeometry x="83" y="470" width="110" height="26" as="geometry">
                        <mxRectangle x="280" y="640" width="160" height="86" as="alternateBounds"/>
                    </mxGeometry>
                </mxCell>
                <mxCell id="a9Ev_Q0Gf8-RII7FJuGp-8" value="+ field: type" style="text;strokeColor=none;fillColor=none;align=left;verticalAlign=top;spacingLeft=4;spacingRight=4;overflow=hidden;rotatable=0;points=[[0,0.5],[1,0.5]];portConstraint=eastwest;" vertex="1" parent="a9Ev_Q0Gf8-RII7FJuGp-7">
                    <mxGeometry y="26" width="110" height="26" as="geometry"/>
                </mxCell>
                <mxCell id="a9Ev_Q0Gf8-RII7FJuGp-9" value="" style="line;strokeWidth=1;fillColor=none;align=left;verticalAlign=middle;spacingTop=-1;spacingLeft=3;spacingRight=3;rotatable=0;labelPosition=right;points=[];portConstraint=eastwest;" vertex="1" parent="a9Ev_Q0Gf8-RII7FJuGp-7">
                    <mxGeometry y="52" width="110" height="8" as="geometry"/>
                </mxCell>
                <mxCell id="a9Ev_Q0Gf8-RII7FJuGp-10" value="+ method(type): type" style="text;strokeColor=none;fillColor=none;align=left;verticalAlign=top;spacingLeft=4;spacingRight=4;overflow=hidden;rotatable=0;points=[[0,0.5],[1,0.5]];portConstraint=eastwest;" vertex="1" parent="a9Ev_Q0Gf8-RII7FJuGp-7">
                    <mxGeometry y="60" width="110" height="26" as="geometry"/>
                </mxCell>
                <mxCell id="a9Ev_Q0Gf8-RII7FJuGp-58" style="edgeStyle=none;html=1;exitX=0.5;exitY=1;exitDx=0;exitDy=0;entryX=0.5;entryY=0;entryDx=0;entryDy=0;fontSize=8;endArrow=none;endFill=0;endSize=12;strokeWidth=1;" edge="1" parent="1" source="a9Ev_Q0Gf8-RII7FJuGp-11" target="a9Ev_Q0Gf8-RII7FJuGp-7">
                    <mxGeometry relative="1" as="geometry"/>
                </mxCell>
                <mxCell id="a9Ev_Q0Gf8-RII7FJuGp-11" value="main" style="html=1;" vertex="1" parent="1">
                    <mxGeometry x="98" y="380" width="80" height="30" as="geometry"/>
                </mxCell>
                <mxCell id="a9Ev_Q0Gf8-RII7FJuGp-15" style="edgeStyle=none;html=1;exitX=0.5;exitY=0;exitDx=0;exitDy=0;exitPerimeter=0;entryX=0.25;entryY=1;entryDx=0;entryDy=0;fontSize=8;dashed=1;strokeWidth=0.5;endArrow=none;endFill=0;" edge="1" parent="1" source="a9Ev_Q0Gf8-RII7FJuGp-14" target="a9Ev_Q0Gf8-RII7FJuGp-7">
                    <mxGeometry relative="1" as="geometry"/>
                </mxCell>
                <mxCell id="a9Ev_Q0Gf8-RII7FJuGp-14" value="床/相手情報の取得" style="shape=note;whiteSpace=wrap;html=1;backgroundOutline=1;darkOpacity=0.05;fontSize=8;size=21;fillColor=#fff2cc;strokeColor=#d6b656;" vertex="1" parent="1">
                    <mxGeometry x="30" y="565" width="120" height="50" as="geometry"/>
                </mxCell>
                <mxCell id="a9Ev_Q0Gf8-RII7FJuGp-17" value="CAN_CTRL" style="swimlane;fontStyle=1;align=center;verticalAlign=top;childLayout=stackLayout;horizontal=1;startSize=26;horizontalStack=0;resizeParent=1;resizeParentMax=0;resizeLast=0;collapsible=1;marginBottom=0;" vertex="1" collapsed="1" parent="1">
                    <mxGeometry x="569.5" y="833" width="110" height="26" as="geometry">
                        <mxRectangle x="280" y="640" width="160" height="86" as="alternateBounds"/>
                    </mxGeometry>
                </mxCell>
                <mxCell id="a9Ev_Q0Gf8-RII7FJuGp-18" value="+ field: type" style="text;strokeColor=none;fillColor=none;align=left;verticalAlign=top;spacingLeft=4;spacingRight=4;overflow=hidden;rotatable=0;points=[[0,0.5],[1,0.5]];portConstraint=eastwest;" vertex="1" parent="a9Ev_Q0Gf8-RII7FJuGp-17">
                    <mxGeometry y="26" width="110" height="26" as="geometry"/>
                </mxCell>
                <mxCell id="a9Ev_Q0Gf8-RII7FJuGp-19" value="" style="line;strokeWidth=1;fillColor=none;align=left;verticalAlign=middle;spacingTop=-1;spacingLeft=3;spacingRight=3;rotatable=0;labelPosition=right;points=[];portConstraint=eastwest;" vertex="1" parent="a9Ev_Q0Gf8-RII7FJuGp-17">
                    <mxGeometry y="52" width="110" height="8" as="geometry"/>
                </mxCell>
                <mxCell id="a9Ev_Q0Gf8-RII7FJuGp-20" value="+ method(type): type" style="text;strokeColor=none;fillColor=none;align=left;verticalAlign=top;spacingLeft=4;spacingRight=4;overflow=hidden;rotatable=0;points=[[0,0.5],[1,0.5]];portConstraint=eastwest;" vertex="1" parent="a9Ev_Q0Gf8-RII7FJuGp-17">
                    <mxGeometry y="60" width="110" height="26" as="geometry"/>
                </mxCell>
                <mxCell id="a9Ev_Q0Gf8-RII7FJuGp-21" value="IMU_IF" style="swimlane;fontStyle=1;align=center;verticalAlign=top;childLayout=stackLayout;horizontal=1;startSize=26;horizontalStack=0;resizeParent=1;resizeParentMax=0;resizeLast=0;collapsible=1;marginBottom=0;" vertex="1" collapsed="1" parent="1">
                    <mxGeometry x="227.5" y="833" width="110" height="26" as="geometry">
                        <mxRectangle x="280" y="640" width="160" height="86" as="alternateBounds"/>
                    </mxGeometry>
                </mxCell>
                <mxCell id="a9Ev_Q0Gf8-RII7FJuGp-22" value="+ field: type" style="text;strokeColor=none;fillColor=none;align=left;verticalAlign=top;spacingLeft=4;spacingRight=4;overflow=hidden;rotatable=0;points=[[0,0.5],[1,0.5]];portConstraint=eastwest;" vertex="1" parent="a9Ev_Q0Gf8-RII7FJuGp-21">
                    <mxGeometry y="26" width="110" height="26" as="geometry"/>
                </mxCell>
                <mxCell id="a9Ev_Q0Gf8-RII7FJuGp-23" value="" style="line;strokeWidth=1;fillColor=none;align=left;verticalAlign=middle;spacingTop=-1;spacingLeft=3;spacingRight=3;rotatable=0;labelPosition=right;points=[];portConstraint=eastwest;" vertex="1" parent="a9Ev_Q0Gf8-RII7FJuGp-21">
                    <mxGeometry y="52" width="110" height="8" as="geometry"/>
                </mxCell>
                <mxCell id="a9Ev_Q0Gf8-RII7FJuGp-24" value="+ method(type): type" style="text;strokeColor=none;fillColor=none;align=left;verticalAlign=top;spacingLeft=4;spacingRight=4;overflow=hidden;rotatable=0;points=[[0,0.5],[1,0.5]];portConstraint=eastwest;" vertex="1" parent="a9Ev_Q0Gf8-RII7FJuGp-21">
                    <mxGeometry y="60" width="110" height="26" as="geometry"/>
                </mxCell>
                <mxCell id="a9Ev_Q0Gf8-RII7FJuGp-29" style="edgeStyle=none;html=1;exitX=0.5;exitY=0;exitDx=0;exitDy=0;entryX=0.5;entryY=1;entryDx=0;entryDy=0;fontSize=8;endArrow=block;endFill=0;strokeWidth=1;endSize=12;" edge="1" parent="1" source="a9Ev_Q0Gf8-RII7FJuGp-25" target="a9Ev_Q0Gf8-RII7FJuGp-21">
                    <mxGeometry relative="1" as="geometry"/>
                </mxCell>
                <mxCell id="a9Ev_Q0Gf8-RII7FJuGp-25" value="IMU_IF_MPU6500" style="swimlane;fontStyle=1;align=center;verticalAlign=top;childLayout=stackLayout;horizontal=1;startSize=26;horizontalStack=0;resizeParent=1;resizeParentMax=0;resizeLast=0;collapsible=1;marginBottom=0;" vertex="1" collapsed="1" parent="1">
                    <mxGeometry x="217.5" y="893" width="130" height="26" as="geometry">
                        <mxRectangle x="280" y="640" width="160" height="86" as="alternateBounds"/>
                    </mxGeometry>
                </mxCell>
                <mxCell id="a9Ev_Q0Gf8-RII7FJuGp-26" value="+ field: type" style="text;strokeColor=none;fillColor=none;align=left;verticalAlign=top;spacingLeft=4;spacingRight=4;overflow=hidden;rotatable=0;points=[[0,0.5],[1,0.5]];portConstraint=eastwest;" vertex="1" parent="a9Ev_Q0Gf8-RII7FJuGp-25">
                    <mxGeometry y="26" width="130" height="26" as="geometry"/>
                </mxCell>
                <mxCell id="a9Ev_Q0Gf8-RII7FJuGp-27" value="" style="line;strokeWidth=1;fillColor=none;align=left;verticalAlign=middle;spacingTop=-1;spacingLeft=3;spacingRight=3;rotatable=0;labelPosition=right;points=[];portConstraint=eastwest;" vertex="1" parent="a9Ev_Q0Gf8-RII7FJuGp-25">
                    <mxGeometry y="52" width="130" height="8" as="geometry"/>
                </mxCell>
                <mxCell id="a9Ev_Q0Gf8-RII7FJuGp-28" value="+ method(type): type" style="text;strokeColor=none;fillColor=none;align=left;verticalAlign=top;spacingLeft=4;spacingRight=4;overflow=hidden;rotatable=0;points=[[0,0.5],[1,0.5]];portConstraint=eastwest;" vertex="1" parent="a9Ev_Q0Gf8-RII7FJuGp-25">
                    <mxGeometry y="60" width="130" height="26" as="geometry"/>
                </mxCell>
                <mxCell id="a9Ev_Q0Gf8-RII7FJuGp-30" value="MOTOR_IF_M2006" style="swimlane;fontStyle=1;align=center;verticalAlign=top;childLayout=stackLayout;horizontal=1;startSize=26;horizontalStack=0;resizeParent=1;resizeParentMax=0;resizeLast=0;collapsible=1;marginBottom=0;" vertex="1" collapsed="1" parent="1">
                    <mxGeometry x="377.5" y="833" width="140" height="26" as="geometry">
                        <mxRectangle x="280" y="640" width="160" height="86" as="alternateBounds"/>
                    </mxGeometry>
                </mxCell>
                <mxCell id="a9Ev_Q0Gf8-RII7FJuGp-31" value="+ field: type" style="text;strokeColor=none;fillColor=none;align=left;verticalAlign=top;spacingLeft=4;spacingRight=4;overflow=hidden;rotatable=0;points=[[0,0.5],[1,0.5]];portConstraint=eastwest;" vertex="1" parent="a9Ev_Q0Gf8-RII7FJuGp-30">
                    <mxGeometry y="26" width="140" height="26" as="geometry"/>
                </mxCell>
                <mxCell id="a9Ev_Q0Gf8-RII7FJuGp-32" value="" style="line;strokeWidth=1;fillColor=none;align=left;verticalAlign=middle;spacingTop=-1;spacingLeft=3;spacingRight=3;rotatable=0;labelPosition=right;points=[];portConstraint=eastwest;" vertex="1" parent="a9Ev_Q0Gf8-RII7FJuGp-30">
                    <mxGeometry y="52" width="140" height="8" as="geometry"/>
                </mxCell>
                <mxCell id="a9Ev_Q0Gf8-RII7FJuGp-33" value="+ method(type): type" style="text;strokeColor=none;fillColor=none;align=left;verticalAlign=top;spacingLeft=4;spacingRight=4;overflow=hidden;rotatable=0;points=[[0,0.5],[1,0.5]];portConstraint=eastwest;" vertex="1" parent="a9Ev_Q0Gf8-RII7FJuGp-30">
                    <mxGeometry y="60" width="140" height="26" as="geometry"/>
                </mxCell>
                <mxCell id="a9Ev_Q0Gf8-RII7FJuGp-35" value="" style="endArrow=diamondThin;endFill=0;endSize=24;html=1;fontSize=8;strokeWidth=1;entryX=0;entryY=0.5;entryDx=0;entryDy=0;exitX=1;exitY=0.5;exitDx=0;exitDy=0;" edge="1" parent="1" source="a9Ev_Q0Gf8-RII7FJuGp-30" target="a9Ev_Q0Gf8-RII7FJuGp-17">
                    <mxGeometry width="160" relative="1" as="geometry">
                        <mxPoint x="467.5" y="903" as="sourcePoint"/>
                        <mxPoint x="627.5" y="903" as="targetPoint"/>
                    </mxGeometry>
                </mxCell>
                <mxCell id="a9Ev_Q0Gf8-RII7FJuGp-36" value="main" style="html=1;" vertex="1" parent="1">
                    <mxGeometry x="351" y="703" width="80" height="30" as="geometry"/>
                </mxCell>
                <mxCell id="a9Ev_Q0Gf8-RII7FJuGp-37" value="VEHICLE_CTRL" style="swimlane;fontStyle=1;align=center;verticalAlign=top;childLayout=stackLayout;horizontal=1;startSize=26;horizontalStack=0;resizeParent=1;resizeParentMax=0;resizeLast=0;collapsible=1;marginBottom=0;" vertex="1" collapsed="1" parent="1">
                    <mxGeometry x="129" y="737" width="140" height="26" as="geometry">
                        <mxRectangle x="280" y="640" width="160" height="86" as="alternateBounds"/>
                    </mxGeometry>
                </mxCell>
                <mxCell id="a9Ev_Q0Gf8-RII7FJuGp-38" value="+ field: type" style="text;strokeColor=none;fillColor=none;align=left;verticalAlign=top;spacingLeft=4;spacingRight=4;overflow=hidden;rotatable=0;points=[[0,0.5],[1,0.5]];portConstraint=eastwest;" vertex="1" parent="a9Ev_Q0Gf8-RII7FJuGp-37">
                    <mxGeometry y="26" width="140" height="26" as="geometry"/>
                </mxCell>
                <mxCell id="a9Ev_Q0Gf8-RII7FJuGp-39" value="" style="line;strokeWidth=1;fillColor=none;align=left;verticalAlign=middle;spacingTop=-1;spacingLeft=3;spacingRight=3;rotatable=0;labelPosition=right;points=[];portConstraint=eastwest;" vertex="1" parent="a9Ev_Q0Gf8-RII7FJuGp-37">
                    <mxGeometry y="52" width="140" height="8" as="geometry"/>
                </mxCell>
                <mxCell id="a9Ev_Q0Gf8-RII7FJuGp-40" value="+ method(type): type" style="text;strokeColor=none;fillColor=none;align=left;verticalAlign=top;spacingLeft=4;spacingRight=4;overflow=hidden;rotatable=0;points=[[0,0.5],[1,0.5]];portConstraint=eastwest;" vertex="1" parent="a9Ev_Q0Gf8-RII7FJuGp-37">
                    <mxGeometry y="60" width="140" height="26" as="geometry"/>
                </mxCell>
                <mxCell id="a9Ev_Q0Gf8-RII7FJuGp-41" value="" style="endArrow=diamondThin;endFill=0;endSize=24;html=1;fontSize=8;strokeWidth=1;entryX=0.779;entryY=1.011;entryDx=0;entryDy=0;exitX=0.25;exitY=0;exitDx=0;exitDy=0;entryPerimeter=0;" edge="1" parent="1" source="a9Ev_Q0Gf8-RII7FJuGp-30" target="a9Ev_Q0Gf8-RII7FJuGp-37">
                    <mxGeometry width="160" relative="1" as="geometry">
                        <mxPoint x="529" y="870" as="sourcePoint"/>
                        <mxPoint x="609" y="870" as="targetPoint"/>
                    </mxGeometry>
                </mxCell>
                <mxCell id="a9Ev_Q0Gf8-RII7FJuGp-42" value="" style="endArrow=diamondThin;endFill=0;endSize=24;html=1;fontSize=8;strokeWidth=1;exitX=0.5;exitY=0;exitDx=0;exitDy=0;entryX=0.5;entryY=1;entryDx=0;entryDy=0;" edge="1" parent="1" source="a9Ev_Q0Gf8-RII7FJuGp-21" target="a9Ev_Q0Gf8-RII7FJuGp-37">
                    <mxGeometry width="160" relative="1" as="geometry">
                        <mxPoint x="334" y="881" as="sourcePoint"/>
                        <mxPoint x="369" y="787" as="targetPoint"/>
                    </mxGeometry>
                </mxCell>
                <mxCell id="a9Ev_Q0Gf8-RII7FJuGp-43" value="controller" style="swimlane;fontStyle=1;align=center;verticalAlign=top;childLayout=stackLayout;horizontal=1;startSize=26;horizontalStack=0;resizeParent=1;resizeParentMax=0;resizeLast=0;collapsible=1;marginBottom=0;" vertex="1" collapsed="1" parent="1">
                    <mxGeometry x="62.5" y="833" width="110" height="26" as="geometry">
                        <mxRectangle x="280" y="640" width="160" height="86" as="alternateBounds"/>
                    </mxGeometry>
                </mxCell>
                <mxCell id="a9Ev_Q0Gf8-RII7FJuGp-44" value="+ field: type" style="text;strokeColor=none;fillColor=none;align=left;verticalAlign=top;spacingLeft=4;spacingRight=4;overflow=hidden;rotatable=0;points=[[0,0.5],[1,0.5]];portConstraint=eastwest;" vertex="1" parent="a9Ev_Q0Gf8-RII7FJuGp-43">
                    <mxGeometry y="26" width="110" height="26" as="geometry"/>
                </mxCell>
                <mxCell id="a9Ev_Q0Gf8-RII7FJuGp-45" value="" style="line;strokeWidth=1;fillColor=none;align=left;verticalAlign=middle;spacingTop=-1;spacingLeft=3;spacingRight=3;rotatable=0;labelPosition=right;points=[];portConstraint=eastwest;" vertex="1" parent="a9Ev_Q0Gf8-RII7FJuGp-43">
                    <mxGeometry y="52" width="110" height="8" as="geometry"/>
                </mxCell>
                <mxCell id="a9Ev_Q0Gf8-RII7FJuGp-46" value="+ method(type): type" style="text;strokeColor=none;fillColor=none;align=left;verticalAlign=top;spacingLeft=4;spacingRight=4;overflow=hidden;rotatable=0;points=[[0,0.5],[1,0.5]];portConstraint=eastwest;" vertex="1" parent="a9Ev_Q0Gf8-RII7FJuGp-43">
                    <mxGeometry y="60" width="110" height="26" as="geometry"/>
                </mxCell>
                <mxCell id="a9Ev_Q0Gf8-RII7FJuGp-47" style="edgeStyle=none;html=1;exitX=0.5;exitY=0;exitDx=0;exitDy=0;entryX=0.5;entryY=1;entryDx=0;entryDy=0;fontSize=8;endArrow=block;endFill=0;strokeWidth=1;endSize=12;" edge="1" parent="1" source="a9Ev_Q0Gf8-RII7FJuGp-48" target="a9Ev_Q0Gf8-RII7FJuGp-43">
                    <mxGeometry relative="1" as="geometry">
                        <mxPoint x="107.5" y="880" as="targetPoint"/>
                    </mxGeometry>
                </mxCell>
                <mxCell id="a9Ev_Q0Gf8-RII7FJuGp-48" value="PI_D" style="swimlane;fontStyle=1;align=center;verticalAlign=top;childLayout=stackLayout;horizontal=1;startSize=26;horizontalStack=0;resizeParent=1;resizeParentMax=0;resizeLast=0;collapsible=1;marginBottom=0;" vertex="1" collapsed="1" parent="1">
                    <mxGeometry x="74" y="893" width="87" height="26" as="geometry">
                        <mxRectangle x="280" y="640" width="160" height="86" as="alternateBounds"/>
                    </mxGeometry>
                </mxCell>
                <mxCell id="a9Ev_Q0Gf8-RII7FJuGp-49" value="+ field: type" style="text;strokeColor=none;fillColor=none;align=left;verticalAlign=top;spacingLeft=4;spacingRight=4;overflow=hidden;rotatable=0;points=[[0,0.5],[1,0.5]];portConstraint=eastwest;" vertex="1" parent="a9Ev_Q0Gf8-RII7FJuGp-48">
                    <mxGeometry y="26" width="87" height="26" as="geometry"/>
                </mxCell>
                <mxCell id="a9Ev_Q0Gf8-RII7FJuGp-50" value="" style="line;strokeWidth=1;fillColor=none;align=left;verticalAlign=middle;spacingTop=-1;spacingLeft=3;spacingRight=3;rotatable=0;labelPosition=right;points=[];portConstraint=eastwest;" vertex="1" parent="a9Ev_Q0Gf8-RII7FJuGp-48">
                    <mxGeometry y="52" width="87" height="8" as="geometry"/>
                </mxCell>
                <mxCell id="a9Ev_Q0Gf8-RII7FJuGp-51" value="+ method(type): type" style="text;strokeColor=none;fillColor=none;align=left;verticalAlign=top;spacingLeft=4;spacingRight=4;overflow=hidden;rotatable=0;points=[[0,0.5],[1,0.5]];portConstraint=eastwest;" vertex="1" parent="a9Ev_Q0Gf8-RII7FJuGp-48">
                    <mxGeometry y="60" width="87" height="26" as="geometry"/>
                </mxCell>
                <mxCell id="a9Ev_Q0Gf8-RII7FJuGp-52" value="" style="endArrow=diamondThin;endFill=0;endSize=24;html=1;fontSize=8;strokeWidth=1;exitX=0.5;exitY=0;exitDx=0;exitDy=0;entryX=0.25;entryY=1;entryDx=0;entryDy=0;" edge="1" parent="1" source="a9Ev_Q0Gf8-RII7FJuGp-43" target="a9Ev_Q0Gf8-RII7FJuGp-37">
                    <mxGeometry width="160" relative="1" as="geometry">
                        <mxPoint x="209" y="847" as="sourcePoint"/>
                        <mxPoint x="251.49999999999977" y="783" as="targetPoint"/>
                    </mxGeometry>
                </mxCell>
                <mxCell id="a9Ev_Q0Gf8-RII7FJuGp-53" value="IMU1" style="swimlane;fontStyle=1;align=center;verticalAlign=top;childLayout=stackLayout;horizontal=1;startSize=26;horizontalStack=0;resizeParent=1;resizeParentMax=0;resizeLast=0;collapsible=1;marginBottom=0;" vertex="1" collapsed="1" parent="1">
                    <mxGeometry x="236.5" y="953" width="92" height="26" as="geometry">
                        <mxRectangle x="280" y="640" width="160" height="86" as="alternateBounds"/>
                    </mxGeometry>
                </mxCell>
                <mxCell id="a9Ev_Q0Gf8-RII7FJuGp-54" value="+ field: type" style="text;strokeColor=none;fillColor=none;align=left;verticalAlign=top;spacingLeft=4;spacingRight=4;overflow=hidden;rotatable=0;points=[[0,0.5],[1,0.5]];portConstraint=eastwest;" vertex="1" parent="a9Ev_Q0Gf8-RII7FJuGp-53">
                    <mxGeometry y="26" width="92" height="26" as="geometry"/>
                </mxCell>
                <mxCell id="a9Ev_Q0Gf8-RII7FJuGp-55" value="" style="line;strokeWidth=1;fillColor=none;align=left;verticalAlign=middle;spacingTop=-1;spacingLeft=3;spacingRight=3;rotatable=0;labelPosition=right;points=[];portConstraint=eastwest;" vertex="1" parent="a9Ev_Q0Gf8-RII7FJuGp-53">
                    <mxGeometry y="52" width="92" height="8" as="geometry"/>
                </mxCell>
                <mxCell id="a9Ev_Q0Gf8-RII7FJuGp-56" value="+ method(type): type" style="text;strokeColor=none;fillColor=none;align=left;verticalAlign=top;spacingLeft=4;spacingRight=4;overflow=hidden;rotatable=0;points=[[0,0.5],[1,0.5]];portConstraint=eastwest;" vertex="1" parent="a9Ev_Q0Gf8-RII7FJuGp-53">
                    <mxGeometry y="60" width="92" height="26" as="geometry"/>
                </mxCell>
                <mxCell id="a9Ev_Q0Gf8-RII7FJuGp-57" style="edgeStyle=none;html=1;exitX=0.5;exitY=0;exitDx=0;exitDy=0;entryX=0.5;entryY=1;entryDx=0;entryDy=0;fontSize=8;endArrow=block;endFill=0;strokeWidth=1;endSize=12;" edge="1" parent="1" source="a9Ev_Q0Gf8-RII7FJuGp-53" target="a9Ev_Q0Gf8-RII7FJuGp-25">
                    <mxGeometry relative="1" as="geometry">
                        <mxPoint x="307.5" y="967.0000000000002" as="sourcePoint"/>
                        <mxPoint x="307.5" y="933" as="targetPoint"/>
                    </mxGeometry>
                </mxCell>
                <mxCell id="a9Ev_Q0Gf8-RII7FJuGp-64" value="" style="endArrow=diamondThin;endFill=0;endSize=24;html=1;fontSize=8;strokeWidth=1;entryX=0;entryY=0.5;entryDx=0;entryDy=0;exitX=1;exitY=0.5;exitDx=0;exitDy=0;" edge="1" parent="1" source="a9Ev_Q0Gf8-RII7FJuGp-37" target="a9Ev_Q0Gf8-RII7FJuGp-36">
                    <mxGeometry width="160" relative="1" as="geometry">
                        <mxPoint x="424" y="857" as="sourcePoint"/>
                        <mxPoint x="248.05999999999995" y="773.2860000000001" as="targetPoint"/>
                    </mxGeometry>
                </mxCell>
                <mxCell id="a9Ev_Q0Gf8-RII7FJuGp-65" value="" style="endArrow=diamondThin;endFill=0;endSize=24;html=1;fontSize=8;strokeWidth=1;entryX=0.75;entryY=1;entryDx=0;entryDy=0;exitX=0.5;exitY=0;exitDx=0;exitDy=0;" edge="1" parent="1" source="a9Ev_Q0Gf8-RII7FJuGp-17" target="a9Ev_Q0Gf8-RII7FJuGp-36">
                    <mxGeometry width="160" relative="1" as="geometry">
                        <mxPoint x="279" y="760" as="sourcePoint"/>
                        <mxPoint x="361" y="728" as="targetPoint"/>
                    </mxGeometry>
                </mxCell>
                <mxCell id="HFB9Oprq9v5PAE-2DBiI-1" value="足回りモータ&lt;br&gt;CAN制御1kHz" style="shape=note;whiteSpace=wrap;html=1;backgroundOutline=1;darkOpacity=0.05;fontSize=8;size=21;fillColor=#fff2cc;strokeColor=#d6b656;" vertex="1" parent="1">
                    <mxGeometry x="479.5" y="893" width="120" height="50" as="geometry"/>
                </mxCell>
                <mxCell id="HFB9Oprq9v5PAE-2DBiI-32" value="" style="group" vertex="1" connectable="0" parent="1">
                    <mxGeometry x="830" y="680" width="240" height="244" as="geometry"/>
                </mxCell>
                <mxCell id="HFB9Oprq9v5PAE-2DBiI-2" value="ADTModeBase" style="swimlane;fontStyle=1;align=center;verticalAlign=top;childLayout=stackLayout;horizontal=1;startSize=26;horizontalStack=0;resizeParent=1;resizeParentMax=0;resizeLast=0;collapsible=1;marginBottom=0;" vertex="1" collapsed="1" parent="HFB9Oprq9v5PAE-2DBiI-32">
                    <mxGeometry width="120" height="26" as="geometry">
                        <mxRectangle x="280" y="640" width="160" height="86" as="alternateBounds"/>
                    </mxGeometry>
                </mxCell>
                <mxCell id="HFB9Oprq9v5PAE-2DBiI-3" value="+ field: type" style="text;strokeColor=none;fillColor=none;align=left;verticalAlign=top;spacingLeft=4;spacingRight=4;overflow=hidden;rotatable=0;points=[[0,0.5],[1,0.5]];portConstraint=eastwest;" vertex="1" parent="HFB9Oprq9v5PAE-2DBiI-2">
                    <mxGeometry y="26" width="120" height="26" as="geometry"/>
                </mxCell>
                <mxCell id="HFB9Oprq9v5PAE-2DBiI-4" value="" style="line;strokeWidth=1;fillColor=none;align=left;verticalAlign=middle;spacingTop=-1;spacingLeft=3;spacingRight=3;rotatable=0;labelPosition=right;points=[];portConstraint=eastwest;" vertex="1" parent="HFB9Oprq9v5PAE-2DBiI-2">
                    <mxGeometry y="52" width="120" height="8" as="geometry"/>
                </mxCell>
                <mxCell id="HFB9Oprq9v5PAE-2DBiI-5" value="+ method(type): type" style="text;strokeColor=none;fillColor=none;align=left;verticalAlign=top;spacingLeft=4;spacingRight=4;overflow=hidden;rotatable=0;points=[[0,0.5],[1,0.5]];portConstraint=eastwest;" vertex="1" parent="HFB9Oprq9v5PAE-2DBiI-2">
                    <mxGeometry y="60" width="120" height="26" as="geometry"/>
                </mxCell>
                <mxCell id="HFB9Oprq9v5PAE-2DBiI-28" style="rounded=0;html=1;exitX=0;exitY=0.5;exitDx=0;exitDy=0;fontSize=8;endArrow=none;endFill=0;endSize=12;strokeWidth=1;" edge="1" parent="HFB9Oprq9v5PAE-2DBiI-32" source="HFB9Oprq9v5PAE-2DBiI-6">
                    <mxGeometry relative="1" as="geometry">
                        <mxPoint x="30" y="65" as="targetPoint"/>
                    </mxGeometry>
                </mxCell>
                <mxCell id="HFB9Oprq9v5PAE-2DBiI-6" value="ADTModeOff" style="swimlane;fontStyle=1;align=center;verticalAlign=top;childLayout=stackLayout;horizontal=1;startSize=26;horizontalStack=0;resizeParent=1;resizeParentMax=0;resizeLast=0;collapsible=1;marginBottom=0;" vertex="1" collapsed="1" parent="HFB9Oprq9v5PAE-2DBiI-32">
                    <mxGeometry x="60" y="52" width="110" height="26" as="geometry">
                        <mxRectangle x="280" y="640" width="160" height="86" as="alternateBounds"/>
                    </mxGeometry>
                </mxCell>
                <mxCell id="HFB9Oprq9v5PAE-2DBiI-7" value="+ field: type" style="text;strokeColor=none;fillColor=none;align=left;verticalAlign=top;spacingLeft=4;spacingRight=4;overflow=hidden;rotatable=0;points=[[0,0.5],[1,0.5]];portConstraint=eastwest;" vertex="1" parent="HFB9Oprq9v5PAE-2DBiI-6">
                    <mxGeometry y="26" width="110" height="26" as="geometry"/>
                </mxCell>
                <mxCell id="HFB9Oprq9v5PAE-2DBiI-8" value="" style="line;strokeWidth=1;fillColor=none;align=left;verticalAlign=middle;spacingTop=-1;spacingLeft=3;spacingRight=3;rotatable=0;labelPosition=right;points=[];portConstraint=eastwest;" vertex="1" parent="HFB9Oprq9v5PAE-2DBiI-6">
                    <mxGeometry y="52" width="110" height="8" as="geometry"/>
                </mxCell>
                <mxCell id="HFB9Oprq9v5PAE-2DBiI-9" value="+ method(type): type" style="text;strokeColor=none;fillColor=none;align=left;verticalAlign=top;spacingLeft=4;spacingRight=4;overflow=hidden;rotatable=0;points=[[0,0.5],[1,0.5]];portConstraint=eastwest;" vertex="1" parent="HFB9Oprq9v5PAE-2DBiI-6">
                    <mxGeometry y="60" width="110" height="26" as="geometry"/>
                </mxCell>
                <mxCell id="HFB9Oprq9v5PAE-2DBiI-29" style="edgeStyle=none;rounded=0;html=1;exitX=0;exitY=0.5;exitDx=0;exitDy=0;fontSize=8;endArrow=none;endFill=0;endSize=12;strokeWidth=1;" edge="1" parent="HFB9Oprq9v5PAE-2DBiI-32" source="HFB9Oprq9v5PAE-2DBiI-10">
                    <mxGeometry relative="1" as="geometry">
                        <mxPoint x="30" y="107.14285714285711" as="targetPoint"/>
                    </mxGeometry>
                </mxCell>
                <mxCell id="HFB9Oprq9v5PAE-2DBiI-10" value="ADTModeInitialize" style="swimlane;fontStyle=1;align=center;verticalAlign=top;childLayout=stackLayout;horizontal=1;startSize=26;horizontalStack=0;resizeParent=1;resizeParentMax=0;resizeLast=0;collapsible=1;marginBottom=0;" vertex="1" collapsed="1" parent="HFB9Oprq9v5PAE-2DBiI-32">
                    <mxGeometry x="60" y="94" width="130" height="26" as="geometry">
                        <mxRectangle x="280" y="640" width="160" height="86" as="alternateBounds"/>
                    </mxGeometry>
                </mxCell>
                <mxCell id="HFB9Oprq9v5PAE-2DBiI-11" value="+ field: type" style="text;strokeColor=none;fillColor=none;align=left;verticalAlign=top;spacingLeft=4;spacingRight=4;overflow=hidden;rotatable=0;points=[[0,0.5],[1,0.5]];portConstraint=eastwest;" vertex="1" parent="HFB9Oprq9v5PAE-2DBiI-10">
                    <mxGeometry y="26" width="130" height="26" as="geometry"/>
                </mxCell>
                <mxCell id="HFB9Oprq9v5PAE-2DBiI-12" value="" style="line;strokeWidth=1;fillColor=none;align=left;verticalAlign=middle;spacingTop=-1;spacingLeft=3;spacingRight=3;rotatable=0;labelPosition=right;points=[];portConstraint=eastwest;" vertex="1" parent="HFB9Oprq9v5PAE-2DBiI-10">
                    <mxGeometry y="52" width="130" height="8" as="geometry"/>
                </mxCell>
                <mxCell id="HFB9Oprq9v5PAE-2DBiI-13" value="+ method(type): type" style="text;strokeColor=none;fillColor=none;align=left;verticalAlign=top;spacingLeft=4;spacingRight=4;overflow=hidden;rotatable=0;points=[[0,0.5],[1,0.5]];portConstraint=eastwest;" vertex="1" parent="HFB9Oprq9v5PAE-2DBiI-10">
                    <mxGeometry y="60" width="130" height="26" as="geometry"/>
                </mxCell>
                <mxCell id="HFB9Oprq9v5PAE-2DBiI-30" style="edgeStyle=none;rounded=0;html=1;exitX=0;exitY=0.5;exitDx=0;exitDy=0;fontSize=8;endArrow=none;endFill=0;endSize=12;strokeWidth=1;" edge="1" parent="HFB9Oprq9v5PAE-2DBiI-32" source="HFB9Oprq9v5PAE-2DBiI-14">
                    <mxGeometry relative="1" as="geometry">
                        <mxPoint x="30" y="148" as="targetPoint"/>
                    </mxGeometry>
                </mxCell>
                <mxCell id="HFB9Oprq9v5PAE-2DBiI-14" value="ADTModeInitPosMove" style="swimlane;fontStyle=1;align=center;verticalAlign=top;childLayout=stackLayout;horizontal=1;startSize=26;horizontalStack=0;resizeParent=1;resizeParentMax=0;resizeLast=0;collapsible=1;marginBottom=0;" vertex="1" collapsed="1" parent="HFB9Oprq9v5PAE-2DBiI-32">
                    <mxGeometry x="60" y="135" width="160" height="26" as="geometry">
                        <mxRectangle x="280" y="640" width="160" height="86" as="alternateBounds"/>
                    </mxGeometry>
                </mxCell>
                <mxCell id="HFB9Oprq9v5PAE-2DBiI-15" value="+ field: type" style="text;strokeColor=none;fillColor=none;align=left;verticalAlign=top;spacingLeft=4;spacingRight=4;overflow=hidden;rotatable=0;points=[[0,0.5],[1,0.5]];portConstraint=eastwest;" vertex="1" parent="HFB9Oprq9v5PAE-2DBiI-14">
                    <mxGeometry y="26" width="160" height="26" as="geometry"/>
                </mxCell>
                <mxCell id="HFB9Oprq9v5PAE-2DBiI-16" value="" style="line;strokeWidth=1;fillColor=none;align=left;verticalAlign=middle;spacingTop=-1;spacingLeft=3;spacingRight=3;rotatable=0;labelPosition=right;points=[];portConstraint=eastwest;" vertex="1" parent="HFB9Oprq9v5PAE-2DBiI-14">
                    <mxGeometry y="52" width="160" height="8" as="geometry"/>
                </mxCell>
                <mxCell id="HFB9Oprq9v5PAE-2DBiI-17" value="+ method(type): type" style="text;strokeColor=none;fillColor=none;align=left;verticalAlign=top;spacingLeft=4;spacingRight=4;overflow=hidden;rotatable=0;points=[[0,0.5],[1,0.5]];portConstraint=eastwest;" vertex="1" parent="HFB9Oprq9v5PAE-2DBiI-14">
                    <mxGeometry y="60" width="160" height="26" as="geometry"/>
                </mxCell>
                <mxCell id="HFB9Oprq9v5PAE-2DBiI-27" style="html=1;exitX=0;exitY=0.5;exitDx=0;exitDy=0;fontSize=8;endArrow=block;endFill=0;endSize=12;strokeWidth=1;entryX=0.25;entryY=1;entryDx=0;entryDy=0;edgeStyle=orthogonalEdgeStyle;rounded=0;" edge="1" parent="HFB9Oprq9v5PAE-2DBiI-32" source="HFB9Oprq9v5PAE-2DBiI-18" target="HFB9Oprq9v5PAE-2DBiI-2">
                    <mxGeometry relative="1" as="geometry">
                        <mxPoint y="231" as="targetPoint"/>
                    </mxGeometry>
                </mxCell>
                <mxCell id="HFB9Oprq9v5PAE-2DBiI-18" value="ADTModePositioningSeq" style="swimlane;fontStyle=1;align=center;verticalAlign=top;childLayout=stackLayout;horizontal=1;startSize=26;horizontalStack=0;resizeParent=1;resizeParentMax=0;resizeLast=0;collapsible=1;marginBottom=0;" vertex="1" collapsed="1" parent="HFB9Oprq9v5PAE-2DBiI-32">
                    <mxGeometry x="60" y="218" width="180" height="26" as="geometry">
                        <mxRectangle x="280" y="640" width="160" height="86" as="alternateBounds"/>
                    </mxGeometry>
                </mxCell>
                <mxCell id="HFB9Oprq9v5PAE-2DBiI-19" value="+ field: type" style="text;strokeColor=none;fillColor=none;align=left;verticalAlign=top;spacingLeft=4;spacingRight=4;overflow=hidden;rotatable=0;points=[[0,0.5],[1,0.5]];portConstraint=eastwest;" vertex="1" parent="HFB9Oprq9v5PAE-2DBiI-18">
                    <mxGeometry y="26" width="180" height="26" as="geometry"/>
                </mxCell>
                <mxCell id="HFB9Oprq9v5PAE-2DBiI-20" value="" style="line;strokeWidth=1;fillColor=none;align=left;verticalAlign=middle;spacingTop=-1;spacingLeft=3;spacingRight=3;rotatable=0;labelPosition=right;points=[];portConstraint=eastwest;" vertex="1" parent="HFB9Oprq9v5PAE-2DBiI-18">
                    <mxGeometry y="52" width="180" height="8" as="geometry"/>
                </mxCell>
                <mxCell id="HFB9Oprq9v5PAE-2DBiI-21" value="+ method(type): type" style="text;strokeColor=none;fillColor=none;align=left;verticalAlign=top;spacingLeft=4;spacingRight=4;overflow=hidden;rotatable=0;points=[[0,0.5],[1,0.5]];portConstraint=eastwest;" vertex="1" parent="HFB9Oprq9v5PAE-2DBiI-18">
                    <mxGeometry y="60" width="180" height="26" as="geometry"/>
                </mxCell>
                <mxCell id="HFB9Oprq9v5PAE-2DBiI-31" style="edgeStyle=none;rounded=0;html=1;exitX=0;exitY=0.5;exitDx=0;exitDy=0;fontSize=8;endArrow=none;endFill=0;endSize=12;strokeWidth=1;" edge="1" parent="HFB9Oprq9v5PAE-2DBiI-32" source="HFB9Oprq9v5PAE-2DBiI-22">
                    <mxGeometry relative="1" as="geometry">
                        <mxPoint x="30" y="190" as="targetPoint"/>
                    </mxGeometry>
                </mxCell>
                <mxCell id="HFB9Oprq9v5PAE-2DBiI-22" value="ADTModePositioning" style="swimlane;fontStyle=1;align=center;verticalAlign=top;childLayout=stackLayout;horizontal=1;startSize=26;horizontalStack=0;resizeParent=1;resizeParentMax=0;resizeLast=0;collapsible=1;marginBottom=0;" vertex="1" collapsed="1" parent="HFB9Oprq9v5PAE-2DBiI-32">
                    <mxGeometry x="60" y="177" width="150" height="26" as="geometry">
                        <mxRectangle x="280" y="640" width="160" height="86" as="alternateBounds"/>
                    </mxGeometry>
                </mxCell>
                <mxCell id="HFB9Oprq9v5PAE-2DBiI-23" value="+ field: type" style="text;strokeColor=none;fillColor=none;align=left;verticalAlign=top;spacingLeft=4;spacingRight=4;overflow=hidden;rotatable=0;points=[[0,0.5],[1,0.5]];portConstraint=eastwest;" vertex="1" parent="HFB9Oprq9v5PAE-2DBiI-22">
                    <mxGeometry y="26" width="150" height="26" as="geometry"/>
                </mxCell>
                <mxCell id="HFB9Oprq9v5PAE-2DBiI-24" value="" style="line;strokeWidth=1;fillColor=none;align=left;verticalAlign=middle;spacingTop=-1;spacingLeft=3;spacingRight=3;rotatable=0;labelPosition=right;points=[];portConstraint=eastwest;" vertex="1" parent="HFB9Oprq9v5PAE-2DBiI-22">
                    <mxGeometry y="52" width="150" height="8" as="geometry"/>
                </mxCell>
                <mxCell id="HFB9Oprq9v5PAE-2DBiI-25" value="+ method(type): type" style="text;strokeColor=none;fillColor=none;align=left;verticalAlign=top;spacingLeft=4;spacingRight=4;overflow=hidden;rotatable=0;points=[[0,0.5],[1,0.5]];portConstraint=eastwest;" vertex="1" parent="HFB9Oprq9v5PAE-2DBiI-22">
                    <mxGeometry y="60" width="150" height="26" as="geometry"/>
                </mxCell>
                <mxCell id="HFB9Oprq9v5PAE-2DBiI-33" value="PositioningSeqが&lt;br&gt;TimeAngle再生用" style="shape=note;whiteSpace=wrap;html=1;backgroundOutline=1;darkOpacity=0.05;fontSize=8;size=18;fillColor=#fff2cc;strokeColor=#d6b656;" vertex="1" parent="1">
                    <mxGeometry x="960" y="936" width="110" height="40" as="geometry"/>
                </mxCell>
                <mxCell id="HFB9Oprq9v5PAE-2DBiI-34" value="JointBase" style="swimlane;fontStyle=1;align=center;verticalAlign=top;childLayout=stackLayout;horizontal=1;startSize=26;horizontalStack=0;resizeParent=1;resizeParentMax=0;resizeLast=0;collapsible=1;marginBottom=0;" vertex="1" collapsed="1" parent="1">
                    <mxGeometry x="1160" y="680" width="110" height="26" as="geometry">
                        <mxRectangle x="280" y="640" width="160" height="86" as="alternateBounds"/>
                    </mxGeometry>
                </mxCell>
                <mxCell id="HFB9Oprq9v5PAE-2DBiI-35" value="+ field: type" style="text;strokeColor=none;fillColor=none;align=left;verticalAlign=top;spacingLeft=4;spacingRight=4;overflow=hidden;rotatable=0;points=[[0,0.5],[1,0.5]];portConstraint=eastwest;" vertex="1" parent="HFB9Oprq9v5PAE-2DBiI-34">
                    <mxGeometry y="26" width="110" height="26" as="geometry"/>
                </mxCell>
                <mxCell id="HFB9Oprq9v5PAE-2DBiI-36" value="" style="line;strokeWidth=1;fillColor=none;align=left;verticalAlign=middle;spacingTop=-1;spacingLeft=3;spacingRight=3;rotatable=0;labelPosition=right;points=[];portConstraint=eastwest;" vertex="1" parent="HFB9Oprq9v5PAE-2DBiI-34">
                    <mxGeometry y="52" width="110" height="8" as="geometry"/>
                </mxCell>
                <mxCell id="HFB9Oprq9v5PAE-2DBiI-37" value="+ method(type): type" style="text;strokeColor=none;fillColor=none;align=left;verticalAlign=top;spacingLeft=4;spacingRight=4;overflow=hidden;rotatable=0;points=[[0,0.5],[1,0.5]];portConstraint=eastwest;" vertex="1" parent="HFB9Oprq9v5PAE-2DBiI-34">
                    <mxGeometry y="60" width="110" height="26" as="geometry"/>
                </mxCell>
                <mxCell id="HFB9Oprq9v5PAE-2DBiI-95" style="edgeStyle=none;rounded=0;html=1;exitX=0;exitY=0.5;exitDx=0;exitDy=0;fontSize=8;endArrow=none;endFill=0;endSize=12;strokeWidth=1;" edge="1" parent="1" source="HFB9Oprq9v5PAE-2DBiI-38">
                    <mxGeometry relative="1" as="geometry">
                        <mxPoint x="1188" y="747.1515151515152" as="targetPoint"/>
                    </mxGeometry>
                </mxCell>
                <mxCell id="HFB9Oprq9v5PAE-2DBiI-38" value="JointIcsServo" style="swimlane;fontStyle=1;align=center;verticalAlign=top;childLayout=stackLayout;horizontal=1;startSize=26;horizontalStack=0;resizeParent=1;resizeParentMax=0;resizeLast=0;collapsible=1;marginBottom=0;" vertex="1" collapsed="1" parent="1">
                    <mxGeometry x="1208" y="734" width="130" height="26" as="geometry">
                        <mxRectangle x="280" y="640" width="160" height="86" as="alternateBounds"/>
                    </mxGeometry>
                </mxCell>
                <mxCell id="HFB9Oprq9v5PAE-2DBiI-39" value="+ field: type" style="text;strokeColor=none;fillColor=none;align=left;verticalAlign=top;spacingLeft=4;spacingRight=4;overflow=hidden;rotatable=0;points=[[0,0.5],[1,0.5]];portConstraint=eastwest;" vertex="1" parent="HFB9Oprq9v5PAE-2DBiI-38">
                    <mxGeometry y="26" width="130" height="26" as="geometry"/>
                </mxCell>
                <mxCell id="HFB9Oprq9v5PAE-2DBiI-40" value="" style="line;strokeWidth=1;fillColor=none;align=left;verticalAlign=middle;spacingTop=-1;spacingLeft=3;spacingRight=3;rotatable=0;labelPosition=right;points=[];portConstraint=eastwest;" vertex="1" parent="HFB9Oprq9v5PAE-2DBiI-38">
                    <mxGeometry y="52" width="130" height="8" as="geometry"/>
                </mxCell>
                <mxCell id="HFB9Oprq9v5PAE-2DBiI-41" value="+ method(type): type" style="text;strokeColor=none;fillColor=none;align=left;verticalAlign=top;spacingLeft=4;spacingRight=4;overflow=hidden;rotatable=0;points=[[0,0.5],[1,0.5]];portConstraint=eastwest;" vertex="1" parent="HFB9Oprq9v5PAE-2DBiI-38">
                    <mxGeometry y="60" width="130" height="26" as="geometry"/>
                </mxCell>
                <mxCell id="HFB9Oprq9v5PAE-2DBiI-42" value="IcsHardSerialClass" style="swimlane;fontStyle=1;align=center;verticalAlign=top;childLayout=stackLayout;horizontal=1;startSize=26;horizontalStack=0;resizeParent=1;resizeParentMax=0;resizeLast=0;collapsible=1;marginBottom=0;" vertex="1" collapsed="1" parent="1">
                    <mxGeometry x="1398" y="734" width="140" height="26" as="geometry">
                        <mxRectangle x="280" y="640" width="160" height="86" as="alternateBounds"/>
                    </mxGeometry>
                </mxCell>
                <mxCell id="HFB9Oprq9v5PAE-2DBiI-43" value="+ field: type" style="text;strokeColor=none;fillColor=none;align=left;verticalAlign=top;spacingLeft=4;spacingRight=4;overflow=hidden;rotatable=0;points=[[0,0.5],[1,0.5]];portConstraint=eastwest;" vertex="1" parent="HFB9Oprq9v5PAE-2DBiI-42">
                    <mxGeometry y="26" width="140" height="26" as="geometry"/>
                </mxCell>
                <mxCell id="HFB9Oprq9v5PAE-2DBiI-44" value="" style="line;strokeWidth=1;fillColor=none;align=left;verticalAlign=middle;spacingTop=-1;spacingLeft=3;spacingRight=3;rotatable=0;labelPosition=right;points=[];portConstraint=eastwest;" vertex="1" parent="HFB9Oprq9v5PAE-2DBiI-42">
                    <mxGeometry y="52" width="140" height="8" as="geometry"/>
                </mxCell>
                <mxCell id="HFB9Oprq9v5PAE-2DBiI-45" value="+ method(type): type" style="text;strokeColor=none;fillColor=none;align=left;verticalAlign=top;spacingLeft=4;spacingRight=4;overflow=hidden;rotatable=0;points=[[0,0.5],[1,0.5]];portConstraint=eastwest;" vertex="1" parent="HFB9Oprq9v5PAE-2DBiI-42">
                    <mxGeometry y="60" width="140" height="26" as="geometry"/>
                </mxCell>
                <mxCell id="HFB9Oprq9v5PAE-2DBiI-91" style="rounded=0;html=1;exitX=0;exitY=0.5;exitDx=0;exitDy=0;fontSize=8;endArrow=none;endFill=0;endSize=12;strokeWidth=1;" edge="1" parent="1" source="HFB9Oprq9v5PAE-2DBiI-46">
                    <mxGeometry relative="1" as="geometry">
                        <mxPoint x="1188" y="884" as="targetPoint"/>
                    </mxGeometry>
                </mxCell>
                <mxCell id="HFB9Oprq9v5PAE-2DBiI-46" value="JointMyBldcServo" style="swimlane;fontStyle=1;align=center;verticalAlign=top;childLayout=stackLayout;horizontal=1;startSize=26;horizontalStack=0;resizeParent=1;resizeParentMax=0;resizeLast=0;collapsible=1;marginBottom=0;" vertex="1" collapsed="1" parent="1">
                    <mxGeometry x="1208" y="871" width="130" height="26" as="geometry">
                        <mxRectangle x="280" y="640" width="160" height="86" as="alternateBounds"/>
                    </mxGeometry>
                </mxCell>
                <mxCell id="HFB9Oprq9v5PAE-2DBiI-47" value="+ field: type" style="text;strokeColor=none;fillColor=none;align=left;verticalAlign=top;spacingLeft=4;spacingRight=4;overflow=hidden;rotatable=0;points=[[0,0.5],[1,0.5]];portConstraint=eastwest;" vertex="1" parent="HFB9Oprq9v5PAE-2DBiI-46">
                    <mxGeometry y="26" width="130" height="26" as="geometry"/>
                </mxCell>
                <mxCell id="HFB9Oprq9v5PAE-2DBiI-48" value="" style="line;strokeWidth=1;fillColor=none;align=left;verticalAlign=middle;spacingTop=-1;spacingLeft=3;spacingRight=3;rotatable=0;labelPosition=right;points=[];portConstraint=eastwest;" vertex="1" parent="HFB9Oprq9v5PAE-2DBiI-46">
                    <mxGeometry y="52" width="130" height="8" as="geometry"/>
                </mxCell>
                <mxCell id="HFB9Oprq9v5PAE-2DBiI-49" value="+ method(type): type" style="text;strokeColor=none;fillColor=none;align=left;verticalAlign=top;spacingLeft=4;spacingRight=4;overflow=hidden;rotatable=0;points=[[0,0.5],[1,0.5]];portConstraint=eastwest;" vertex="1" parent="HFB9Oprq9v5PAE-2DBiI-46">
                    <mxGeometry y="60" width="130" height="26" as="geometry"/>
                </mxCell>
                <mxCell id="HFB9Oprq9v5PAE-2DBiI-50" value="CAN_CTRL_MSV" style="swimlane;fontStyle=1;align=center;verticalAlign=top;childLayout=stackLayout;horizontal=1;startSize=26;horizontalStack=0;resizeParent=1;resizeParentMax=0;resizeLast=0;collapsible=1;marginBottom=0;" vertex="1" collapsed="1" parent="1">
                    <mxGeometry x="1408" y="871" width="130" height="26" as="geometry">
                        <mxRectangle x="280" y="640" width="160" height="86" as="alternateBounds"/>
                    </mxGeometry>
                </mxCell>
                <mxCell id="HFB9Oprq9v5PAE-2DBiI-51" value="+ field: type" style="text;strokeColor=none;fillColor=none;align=left;verticalAlign=top;spacingLeft=4;spacingRight=4;overflow=hidden;rotatable=0;points=[[0,0.5],[1,0.5]];portConstraint=eastwest;" vertex="1" parent="HFB9Oprq9v5PAE-2DBiI-50">
                    <mxGeometry y="26" width="130" height="26" as="geometry"/>
                </mxCell>
                <mxCell id="HFB9Oprq9v5PAE-2DBiI-52" value="" style="line;strokeWidth=1;fillColor=none;align=left;verticalAlign=middle;spacingTop=-1;spacingLeft=3;spacingRight=3;rotatable=0;labelPosition=right;points=[];portConstraint=eastwest;" vertex="1" parent="HFB9Oprq9v5PAE-2DBiI-50">
                    <mxGeometry y="52" width="130" height="8" as="geometry"/>
                </mxCell>
                <mxCell id="HFB9Oprq9v5PAE-2DBiI-53" value="+ method(type): type" style="text;strokeColor=none;fillColor=none;align=left;verticalAlign=top;spacingLeft=4;spacingRight=4;overflow=hidden;rotatable=0;points=[[0,0.5],[1,0.5]];portConstraint=eastwest;" vertex="1" parent="HFB9Oprq9v5PAE-2DBiI-50">
                    <mxGeometry y="60" width="130" height="26" as="geometry"/>
                </mxCell>
                <mxCell id="HFB9Oprq9v5PAE-2DBiI-54" value="" style="endArrow=diamondThin;endFill=0;endSize=24;html=1;fontSize=8;strokeWidth=1;entryX=0;entryY=0.5;entryDx=0;entryDy=0;exitX=1;exitY=0.5;exitDx=0;exitDy=0;" edge="1" parent="1" source="HFB9Oprq9v5PAE-2DBiI-46" target="HFB9Oprq9v5PAE-2DBiI-50">
                    <mxGeometry width="160" relative="1" as="geometry">
                        <mxPoint x="1516" y="895.37" as="sourcePoint"/>
                        <mxPoint x="1568" y="895.37" as="targetPoint"/>
                    </mxGeometry>
                </mxCell>
                <mxCell id="HFB9Oprq9v5PAE-2DBiI-96" style="edgeStyle=none;rounded=0;html=1;exitX=0;exitY=0.5;exitDx=0;exitDy=0;fontSize=8;endArrow=none;endFill=0;endSize=12;strokeWidth=1;" edge="1" parent="1" source="HFB9Oprq9v5PAE-2DBiI-55">
                    <mxGeometry relative="1" as="geometry">
                        <mxPoint x="1188.0000000000002" y="797.9148936170212" as="targetPoint"/>
                    </mxGeometry>
                </mxCell>
                <mxCell id="HFB9Oprq9v5PAE-2DBiI-55" value="JointGimServo" style="swimlane;fontStyle=1;align=center;verticalAlign=top;childLayout=stackLayout;horizontal=1;startSize=26;horizontalStack=0;resizeParent=1;resizeParentMax=0;resizeLast=0;collapsible=1;marginBottom=0;" vertex="1" collapsed="1" parent="1">
                    <mxGeometry x="1208" y="785" width="130" height="26" as="geometry">
                        <mxRectangle x="280" y="640" width="160" height="86" as="alternateBounds"/>
                    </mxGeometry>
                </mxCell>
                <mxCell id="HFB9Oprq9v5PAE-2DBiI-56" value="+ field: type" style="text;strokeColor=none;fillColor=none;align=left;verticalAlign=top;spacingLeft=4;spacingRight=4;overflow=hidden;rotatable=0;points=[[0,0.5],[1,0.5]];portConstraint=eastwest;" vertex="1" parent="HFB9Oprq9v5PAE-2DBiI-55">
                    <mxGeometry y="26" width="130" height="26" as="geometry"/>
                </mxCell>
                <mxCell id="HFB9Oprq9v5PAE-2DBiI-57" value="" style="line;strokeWidth=1;fillColor=none;align=left;verticalAlign=middle;spacingTop=-1;spacingLeft=3;spacingRight=3;rotatable=0;labelPosition=right;points=[];portConstraint=eastwest;" vertex="1" parent="HFB9Oprq9v5PAE-2DBiI-55">
                    <mxGeometry y="52" width="130" height="8" as="geometry"/>
                </mxCell>
                <mxCell id="HFB9Oprq9v5PAE-2DBiI-58" value="+ method(type): type" style="text;strokeColor=none;fillColor=none;align=left;verticalAlign=top;spacingLeft=4;spacingRight=4;overflow=hidden;rotatable=0;points=[[0,0.5],[1,0.5]];portConstraint=eastwest;" vertex="1" parent="HFB9Oprq9v5PAE-2DBiI-55">
                    <mxGeometry y="60" width="130" height="26" as="geometry"/>
                </mxCell>
                <mxCell id="HFB9Oprq9v5PAE-2DBiI-59" value="CAN_CTRL_GIM" style="swimlane;fontStyle=1;align=center;verticalAlign=top;childLayout=stackLayout;horizontal=1;startSize=26;horizontalStack=0;resizeParent=1;resizeParentMax=0;resizeLast=0;collapsible=1;marginBottom=0;" vertex="1" collapsed="1" parent="1">
                    <mxGeometry x="1408" y="785" width="130" height="26" as="geometry">
                        <mxRectangle x="280" y="640" width="160" height="86" as="alternateBounds"/>
                    </mxGeometry>
                </mxCell>
                <mxCell id="HFB9Oprq9v5PAE-2DBiI-60" value="+ field: type" style="text;strokeColor=none;fillColor=none;align=left;verticalAlign=top;spacingLeft=4;spacingRight=4;overflow=hidden;rotatable=0;points=[[0,0.5],[1,0.5]];portConstraint=eastwest;" vertex="1" parent="HFB9Oprq9v5PAE-2DBiI-59">
                    <mxGeometry y="26" width="130" height="26" as="geometry"/>
                </mxCell>
                <mxCell id="HFB9Oprq9v5PAE-2DBiI-61" value="" style="line;strokeWidth=1;fillColor=none;align=left;verticalAlign=middle;spacingTop=-1;spacingLeft=3;spacingRight=3;rotatable=0;labelPosition=right;points=[];portConstraint=eastwest;" vertex="1" parent="HFB9Oprq9v5PAE-2DBiI-59">
                    <mxGeometry y="52" width="130" height="8" as="geometry"/>
                </mxCell>
                <mxCell id="HFB9Oprq9v5PAE-2DBiI-62" value="+ method(type): type" style="text;strokeColor=none;fillColor=none;align=left;verticalAlign=top;spacingLeft=4;spacingRight=4;overflow=hidden;rotatable=0;points=[[0,0.5],[1,0.5]];portConstraint=eastwest;" vertex="1" parent="HFB9Oprq9v5PAE-2DBiI-59">
                    <mxGeometry y="60" width="130" height="26" as="geometry"/>
                </mxCell>
                <mxCell id="HFB9Oprq9v5PAE-2DBiI-63" value="" style="endArrow=diamondThin;endFill=0;endSize=24;html=1;fontSize=8;strokeWidth=1;entryX=0;entryY=0.5;entryDx=0;entryDy=0;exitX=1;exitY=0.5;exitDx=0;exitDy=0;" edge="1" parent="1" source="HFB9Oprq9v5PAE-2DBiI-55" target="HFB9Oprq9v5PAE-2DBiI-59">
                    <mxGeometry width="160" relative="1" as="geometry">
                        <mxPoint x="1358" y="718" as="sourcePoint"/>
                        <mxPoint x="1458" y="718" as="targetPoint"/>
                    </mxGeometry>
                </mxCell>
                <mxCell id="HFB9Oprq9v5PAE-2DBiI-97" style="edgeStyle=none;rounded=0;html=1;exitX=0;exitY=0.5;exitDx=0;exitDy=0;fontSize=8;endArrow=none;endFill=0;endSize=12;strokeWidth=1;" edge="1" parent="1" source="HFB9Oprq9v5PAE-2DBiI-64">
                    <mxGeometry relative="1" as="geometry">
                        <mxPoint x="1188.0000000000002" y="837.9148936170212" as="targetPoint"/>
                    </mxGeometry>
                </mxCell>
                <mxCell id="HFB9Oprq9v5PAE-2DBiI-64" value="JointMgServo" style="swimlane;fontStyle=1;align=center;verticalAlign=top;childLayout=stackLayout;horizontal=1;startSize=26;horizontalStack=0;resizeParent=1;resizeParentMax=0;resizeLast=0;collapsible=1;marginBottom=0;" vertex="1" collapsed="1" parent="1">
                    <mxGeometry x="1208" y="825" width="130" height="26" as="geometry">
                        <mxRectangle x="280" y="640" width="160" height="86" as="alternateBounds"/>
                    </mxGeometry>
                </mxCell>
                <mxCell id="HFB9Oprq9v5PAE-2DBiI-65" value="+ field: type" style="text;strokeColor=none;fillColor=none;align=left;verticalAlign=top;spacingLeft=4;spacingRight=4;overflow=hidden;rotatable=0;points=[[0,0.5],[1,0.5]];portConstraint=eastwest;" vertex="1" parent="HFB9Oprq9v5PAE-2DBiI-64">
                    <mxGeometry y="26" width="130" height="26" as="geometry"/>
                </mxCell>
                <mxCell id="HFB9Oprq9v5PAE-2DBiI-66" value="" style="line;strokeWidth=1;fillColor=none;align=left;verticalAlign=middle;spacingTop=-1;spacingLeft=3;spacingRight=3;rotatable=0;labelPosition=right;points=[];portConstraint=eastwest;" vertex="1" parent="HFB9Oprq9v5PAE-2DBiI-64">
                    <mxGeometry y="52" width="130" height="8" as="geometry"/>
                </mxCell>
                <mxCell id="HFB9Oprq9v5PAE-2DBiI-67" value="+ method(type): type" style="text;strokeColor=none;fillColor=none;align=left;verticalAlign=top;spacingLeft=4;spacingRight=4;overflow=hidden;rotatable=0;points=[[0,0.5],[1,0.5]];portConstraint=eastwest;" vertex="1" parent="HFB9Oprq9v5PAE-2DBiI-64">
                    <mxGeometry y="60" width="130" height="26" as="geometry"/>
                </mxCell>
                <mxCell id="HFB9Oprq9v5PAE-2DBiI-68" value="CAN_CTRL_MG" style="swimlane;fontStyle=1;align=center;verticalAlign=top;childLayout=stackLayout;horizontal=1;startSize=26;horizontalStack=0;resizeParent=1;resizeParentMax=0;resizeLast=0;collapsible=1;marginBottom=0;" vertex="1" collapsed="1" parent="1">
                    <mxGeometry x="1408" y="825" width="130" height="26" as="geometry">
                        <mxRectangle x="280" y="640" width="160" height="86" as="alternateBounds"/>
                    </mxGeometry>
                </mxCell>
                <mxCell id="HFB9Oprq9v5PAE-2DBiI-69" value="+ field: type" style="text;strokeColor=none;fillColor=none;align=left;verticalAlign=top;spacingLeft=4;spacingRight=4;overflow=hidden;rotatable=0;points=[[0,0.5],[1,0.5]];portConstraint=eastwest;" vertex="1" parent="HFB9Oprq9v5PAE-2DBiI-68">
                    <mxGeometry y="26" width="130" height="26" as="geometry"/>
                </mxCell>
                <mxCell id="HFB9Oprq9v5PAE-2DBiI-70" value="" style="line;strokeWidth=1;fillColor=none;align=left;verticalAlign=middle;spacingTop=-1;spacingLeft=3;spacingRight=3;rotatable=0;labelPosition=right;points=[];portConstraint=eastwest;" vertex="1" parent="HFB9Oprq9v5PAE-2DBiI-68">
                    <mxGeometry y="52" width="130" height="8" as="geometry"/>
                </mxCell>
                <mxCell id="HFB9Oprq9v5PAE-2DBiI-71" value="+ method(type): type" style="text;strokeColor=none;fillColor=none;align=left;verticalAlign=top;spacingLeft=4;spacingRight=4;overflow=hidden;rotatable=0;points=[[0,0.5],[1,0.5]];portConstraint=eastwest;" vertex="1" parent="HFB9Oprq9v5PAE-2DBiI-68">
                    <mxGeometry y="60" width="130" height="26" as="geometry"/>
                </mxCell>
                <mxCell id="HFB9Oprq9v5PAE-2DBiI-72" value="" style="endArrow=diamondThin;endFill=0;endSize=24;html=1;fontSize=8;strokeWidth=1;entryX=0;entryY=0.5;entryDx=0;entryDy=0;exitX=1;exitY=0.5;exitDx=0;exitDy=0;" edge="1" parent="1" source="HFB9Oprq9v5PAE-2DBiI-64" target="HFB9Oprq9v5PAE-2DBiI-68">
                    <mxGeometry width="160" relative="1" as="geometry">
                        <mxPoint x="1358" y="758" as="sourcePoint"/>
                        <mxPoint x="1458" y="758" as="targetPoint"/>
                    </mxGeometry>
                </mxCell>
                <mxCell id="HFB9Oprq9v5PAE-2DBiI-90" style="edgeStyle=orthogonalEdgeStyle;rounded=0;html=1;exitX=0.5;exitY=0;exitDx=0;exitDy=0;entryX=0.5;entryY=1;entryDx=0;entryDy=0;fontSize=8;endArrow=block;endFill=0;endSize=12;strokeWidth=1;" edge="1" parent="1" source="HFB9Oprq9v5PAE-2DBiI-73" target="HFB9Oprq9v5PAE-2DBiI-77">
                    <mxGeometry relative="1" as="geometry"/>
                </mxCell>
                <mxCell id="HFB9Oprq9v5PAE-2DBiI-73" value="JointDfGearRoll" style="swimlane;fontStyle=1;align=center;verticalAlign=top;childLayout=stackLayout;horizontal=1;startSize=26;horizontalStack=0;resizeParent=1;resizeParentMax=0;resizeLast=0;collapsible=1;marginBottom=0;" vertex="1" collapsed="1" parent="1">
                    <mxGeometry x="1208" y="980" width="130" height="26" as="geometry">
                        <mxRectangle x="280" y="640" width="160" height="86" as="alternateBounds"/>
                    </mxGeometry>
                </mxCell>
                <mxCell id="HFB9Oprq9v5PAE-2DBiI-74" value="+ field: type" style="text;strokeColor=none;fillColor=none;align=left;verticalAlign=top;spacingLeft=4;spacingRight=4;overflow=hidden;rotatable=0;points=[[0,0.5],[1,0.5]];portConstraint=eastwest;" vertex="1" parent="HFB9Oprq9v5PAE-2DBiI-73">
                    <mxGeometry y="26" width="130" height="26" as="geometry"/>
                </mxCell>
                <mxCell id="HFB9Oprq9v5PAE-2DBiI-75" value="" style="line;strokeWidth=1;fillColor=none;align=left;verticalAlign=middle;spacingTop=-1;spacingLeft=3;spacingRight=3;rotatable=0;labelPosition=right;points=[];portConstraint=eastwest;" vertex="1" parent="HFB9Oprq9v5PAE-2DBiI-73">
                    <mxGeometry y="52" width="130" height="8" as="geometry"/>
                </mxCell>
                <mxCell id="HFB9Oprq9v5PAE-2DBiI-76" value="+ method(type): type" style="text;strokeColor=none;fillColor=none;align=left;verticalAlign=top;spacingLeft=4;spacingRight=4;overflow=hidden;rotatable=0;points=[[0,0.5],[1,0.5]];portConstraint=eastwest;" vertex="1" parent="HFB9Oprq9v5PAE-2DBiI-73">
                    <mxGeometry y="60" width="130" height="26" as="geometry"/>
                </mxCell>
                <mxCell id="HFB9Oprq9v5PAE-2DBiI-89" style="edgeStyle=orthogonalEdgeStyle;rounded=0;html=1;exitX=0;exitY=0.5;exitDx=0;exitDy=0;entryX=0.25;entryY=1;entryDx=0;entryDy=0;fontSize=8;endArrow=block;endFill=0;endSize=12;strokeWidth=1;" edge="1" parent="1" source="HFB9Oprq9v5PAE-2DBiI-77" target="HFB9Oprq9v5PAE-2DBiI-34">
                    <mxGeometry relative="1" as="geometry"/>
                </mxCell>
                <mxCell id="HFB9Oprq9v5PAE-2DBiI-77" value="JointDfGearPitch" style="swimlane;fontStyle=1;align=center;verticalAlign=top;childLayout=stackLayout;horizontal=1;startSize=26;horizontalStack=0;resizeParent=1;resizeParentMax=0;resizeLast=0;collapsible=1;marginBottom=0;" vertex="1" collapsed="1" parent="1">
                    <mxGeometry x="1208" y="920" width="130" height="26" as="geometry">
                        <mxRectangle x="280" y="640" width="160" height="86" as="alternateBounds"/>
                    </mxGeometry>
                </mxCell>
                <mxCell id="HFB9Oprq9v5PAE-2DBiI-78" value="+ field: type" style="text;strokeColor=none;fillColor=none;align=left;verticalAlign=top;spacingLeft=4;spacingRight=4;overflow=hidden;rotatable=0;points=[[0,0.5],[1,0.5]];portConstraint=eastwest;" vertex="1" parent="HFB9Oprq9v5PAE-2DBiI-77">
                    <mxGeometry y="26" width="130" height="26" as="geometry"/>
                </mxCell>
                <mxCell id="HFB9Oprq9v5PAE-2DBiI-79" value="" style="line;strokeWidth=1;fillColor=none;align=left;verticalAlign=middle;spacingTop=-1;spacingLeft=3;spacingRight=3;rotatable=0;labelPosition=right;points=[];portConstraint=eastwest;" vertex="1" parent="HFB9Oprq9v5PAE-2DBiI-77">
                    <mxGeometry y="52" width="130" height="8" as="geometry"/>
                </mxCell>
                <mxCell id="HFB9Oprq9v5PAE-2DBiI-80" value="+ method(type): type" style="text;strokeColor=none;fillColor=none;align=left;verticalAlign=top;spacingLeft=4;spacingRight=4;overflow=hidden;rotatable=0;points=[[0,0.5],[1,0.5]];portConstraint=eastwest;" vertex="1" parent="HFB9Oprq9v5PAE-2DBiI-77">
                    <mxGeometry y="60" width="130" height="26" as="geometry"/>
                </mxCell>
                <mxCell id="HFB9Oprq9v5PAE-2DBiI-81" value="JointDfGearVirtual" style="swimlane;fontStyle=1;align=center;verticalAlign=top;childLayout=stackLayout;horizontal=1;startSize=26;horizontalStack=0;resizeParent=1;resizeParentMax=0;resizeLast=0;collapsible=1;marginBottom=0;" vertex="1" collapsed="1" parent="1">
                    <mxGeometry x="1408" y="920" width="130" height="26" as="geometry">
                        <mxRectangle x="280" y="640" width="160" height="86" as="alternateBounds"/>
                    </mxGeometry>
                </mxCell>
                <mxCell id="HFB9Oprq9v5PAE-2DBiI-82" value="+ field: type" style="text;strokeColor=none;fillColor=none;align=left;verticalAlign=top;spacingLeft=4;spacingRight=4;overflow=hidden;rotatable=0;points=[[0,0.5],[1,0.5]];portConstraint=eastwest;" vertex="1" parent="HFB9Oprq9v5PAE-2DBiI-81">
                    <mxGeometry y="26" width="130" height="26" as="geometry"/>
                </mxCell>
                <mxCell id="HFB9Oprq9v5PAE-2DBiI-83" value="" style="line;strokeWidth=1;fillColor=none;align=left;verticalAlign=middle;spacingTop=-1;spacingLeft=3;spacingRight=3;rotatable=0;labelPosition=right;points=[];portConstraint=eastwest;" vertex="1" parent="HFB9Oprq9v5PAE-2DBiI-81">
                    <mxGeometry y="52" width="130" height="8" as="geometry"/>
                </mxCell>
                <mxCell id="HFB9Oprq9v5PAE-2DBiI-84" value="+ method(type): type" style="text;strokeColor=none;fillColor=none;align=left;verticalAlign=top;spacingLeft=4;spacingRight=4;overflow=hidden;rotatable=0;points=[[0,0.5],[1,0.5]];portConstraint=eastwest;" vertex="1" parent="HFB9Oprq9v5PAE-2DBiI-81">
                    <mxGeometry y="60" width="130" height="26" as="geometry"/>
                </mxCell>
                <mxCell id="HFB9Oprq9v5PAE-2DBiI-86" value="" style="endArrow=diamondThin;endFill=0;endSize=24;html=1;fontSize=8;strokeWidth=1;entryX=0;entryY=0;entryDx=0;entryDy=0;exitX=0.75;exitY=1;exitDx=0;exitDy=0;" edge="1" parent="1" source="HFB9Oprq9v5PAE-2DBiI-46" target="HFB9Oprq9v5PAE-2DBiI-81">
                    <mxGeometry width="160" relative="1" as="geometry">
                        <mxPoint x="1358" y="910" as="sourcePoint"/>
                        <mxPoint x="1418" y="910" as="targetPoint"/>
                    </mxGeometry>
                </mxCell>
                <mxCell id="HFB9Oprq9v5PAE-2DBiI-87" value="" style="endArrow=diamondThin;endFill=0;endSize=24;html=1;fontSize=8;strokeWidth=1;entryX=1;entryY=0.5;entryDx=0;entryDy=0;exitX=0;exitY=0.5;exitDx=0;exitDy=0;" edge="1" parent="1" source="HFB9Oprq9v5PAE-2DBiI-42" target="HFB9Oprq9v5PAE-2DBiI-38">
                    <mxGeometry width="160" relative="1" as="geometry">
                        <mxPoint x="1258" y="648" as="sourcePoint"/>
                        <mxPoint x="1363" y="698" as="targetPoint"/>
                    </mxGeometry>
                </mxCell>
                <mxCell id="HFB9Oprq9v5PAE-2DBiI-88" value="" style="endArrow=diamondThin;endFill=0;endSize=24;html=1;fontSize=8;strokeWidth=1;entryX=1;entryY=0.5;entryDx=0;entryDy=0;exitX=0;exitY=0.5;exitDx=0;exitDy=0;" edge="1" parent="1" source="HFB9Oprq9v5PAE-2DBiI-81" target="HFB9Oprq9v5PAE-2DBiI-77">
                    <mxGeometry width="160" relative="1" as="geometry">
                        <mxPoint x="1297" y="968" as="sourcePoint"/>
                        <mxPoint x="1402" y="1018" as="targetPoint"/>
                    </mxGeometry>
                </mxCell>
                <mxCell id="HFB9Oprq9v5PAE-2DBiI-98" value="差動2軸分の駆動量&lt;br&gt;を集約する仮想軸" style="shape=note;whiteSpace=wrap;html=1;backgroundOutline=1;darkOpacity=0.05;fontSize=8;size=18;fillColor=#fff2cc;strokeColor=#d6b656;" vertex="1" parent="1">
                    <mxGeometry x="1438" y="973" width="110" height="40" as="geometry"/>
                </mxCell>
                <mxCell id="HFB9Oprq9v5PAE-2DBiI-99" value="main" style="html=1;" vertex="1" parent="1">
                    <mxGeometry x="1100" y="565" width="80" height="30" as="geometry"/>
                </mxCell>
            </root>
        </mxGraphModel>
    </diagram>
</mxfile>